<svg width="209" height="131" viewBox="0 0 209 131" fill="none" xmlns="http://www.w3.org/2000/svg">
<rect x="48" y="9" width="113" height="113" rx="24" fill="#1C1D21"/>
<path d="M153.6 16.4021C155.359 18.1612 156.835 20.1923 157.964 22.4101C159.115 24.6692 159.844 26.9832 160.29 29.4688C160.73 31.9173 160.875 34.414 160.943 36.89C160.973 38.0257 160.986 39.1627 160.993 40.2998C161 41.6484 161 42.9983 161 44.3482L160.999 86.6521C160.999 88.0006 161 89.3505 160.992 90.7005C160.985 91.8375 160.971 92.9732 160.941 94.1103C160.875 96.5863 160.728 99.083 160.289 101.532C159.841 104.019 159.112 106.331 157.963 108.59C156.839 110.798 155.381 112.829 153.63 114.584L153.584 114.584M153.6 16.4021C153.595 16.397 153.59 16.392 153.584 16.3869M153.6 16.4021L153.584 16.3869M153.6 16.4021L55.4021 114.598M153.584 16.3869C153.555 16.3571 153.525 16.3273 153.495 16.2977M153.584 16.3869V114.584M153.495 16.2977C151.758 14.5832 149.765 13.1442 147.59 12.0364C145.332 10.887 143.02 10.1578 140.536 9.71144C138.087 9.27062 135.588 9.12505 133.112 9.05776C131.975 9.02755 130.839 9.01382 129.702 9.00695C128.352 8.99871 127.002 9.00009 125.653 9.00009H83.3482C81.9983 9.00009 80.6484 9.00009 79.2998 9.00695C78.1628 9.01382 77.0257 9.02755 75.89 9.05776C73.414 9.12505 70.9146 9.27062 68.466 9.71144C65.9818 10.1578 63.6692 10.887 61.4115 12.0364C59.2363 13.1429 57.2432 14.5831 55.5071 16.2977M153.495 16.2977H55.5071M55.5071 16.2977C55.472 16.3323 55.437 16.3671 55.4021 16.4021M55.4021 16.4021C55.3672 16.4369 55.3325 16.4718 55.2979 16.5069M55.4021 16.4021L153.584 114.584M55.2979 16.5069C53.5833 18.243 52.1443 20.2362 51.0364 22.4101C49.887 24.6692 49.1578 26.9818 48.7115 29.4688C48.272 31.9173 48.1251 34.414 48.0591 36.89C48.0289 38.027 48.0152 39.1627 48.0083 40.2998C48.0001 41.6498 48.0001 42.9997 48.0001 44.3482V86.6521C48.0001 88.002 48.0001 89.3519 48.0083 90.7005C48.0152 91.8375 48.0289 92.9732 48.0591 94.1103C48.1264 96.5863 48.272 99.083 48.7115 101.532C49.1578 104.017 49.887 106.331 51.0364 108.59C52.1429 110.764 53.5832 112.759 55.2979 114.494M55.2979 16.5069V114.494M55.2979 114.494C55.3279 114.524 55.3581 114.554 55.3883 114.584M55.2979 114.494C55.3112 114.507 55.3246 114.521 55.338 114.534C55.3547 114.551 55.3715 114.568 55.3883 114.584M55.3883 114.584C55.3929 114.589 55.3975 114.594 55.4021 114.598M55.3883 114.584L55.4021 114.598M55.3883 114.584L153.584 114.584M55.4021 114.598C57.1626 116.359 59.1923 117.834 61.4115 118.964C63.6692 120.113 65.9818 120.843 68.466 121.289C70.9146 121.73 73.4126 121.875 75.89 121.943C77.0271 121.973 78.1628 121.986 79.2998 121.993C80.6498 122.002 81.9997 122 83.3482 122H125.652C127.002 122 128.352 122 129.7 121.993C130.838 121.986 131.973 121.973 133.11 121.943C135.586 121.875 138.084 121.73 140.534 121.289C143.019 120.843 145.331 120.113 147.589 118.964C149.798 117.84 151.829 116.381 153.584 114.63V114.584M83.3125 9.00008V122M125.57 9.00008V122M161 44.3125H48M161 86.5697H48M161 65.4994H48M104.382 122V9.00008M104.511 86.674C116.2 86.674 125.675 77.1987 125.675 65.5104C125.675 53.8221 116.2 44.3468 104.511 44.3468C92.8231 44.3468 83.3478 53.8221 83.3478 65.5104C83.3478 77.1987 92.8231 86.674 104.511 86.674ZM134.344 67.9782C135.707 51.5013 123.455 37.0389 106.978 35.6756C90.501 34.3122 76.0386 46.5642 74.6753 63.0411C73.312 79.5181 85.564 93.9805 102.041 95.3438C118.518 96.7071 132.98 84.4551 134.344 67.9782ZM104.512 114.595C131.621 114.595 153.597 92.6193 153.597 65.5104C153.597 38.4015 131.621 16.4254 104.512 16.4254C77.4035 16.4254 55.4274 38.4015 55.4274 65.5104C55.4274 92.6193 77.4035 114.595 104.512 114.595Z" stroke="#656565" stroke-miterlimit="10"/>
<path d="M138 72.6V59.4L127 52.8V46.2V39.6L116 33V46.2L105 39.6V46.2V52.8L116 59.4V72.6L127 79.2V72.6V66L138 72.6Z" fill="white"/>
<path d="M94 59.4L94 72.6L105 79.2V72.6V66L94 59.4Z" fill="white"/>
<path d="M72 59.4V72.6L83 66V72.6L83 79.2L94 72.6L94 59.4L105 52.8V46.2V39.6L94 46.2V33L83 39.6V46.2V52.8L72 59.4Z" fill="#E6E6E6"/>
<path d="M94 85.8L83 79.2V85.8L83 92.4L94 85.8Z" fill="#CFCFCF"/>
<path d="M127 85.8V79.2L116 85.8L127 92.4V85.8Z" fill="#CFCFCF"/>
<path d="M116 72.6V59.4L105 66V72.6V79.2L116 72.6Z" fill="#CFCFCF"/>
<path d="M116 33L105 39.6L116 46.2V33Z" fill="#CFCFCF"/>
<path d="M127 79.2L138 72.6L127 66V72.6V79.2Z" fill="#AEAEAE"/>
<path d="M116 85.8L127 79.2L116 72.6L105 79.2L94 72.6L83 79.2L94 85.8L83 92.4L94 99L105 92.4L116 99L127 92.4L116 85.8Z" fill="#AEAEAE"/>
<path d="M72 72.6L83 79.2L83 72.6V66L72 72.6Z" fill="#AEAEAE"/>
<path d="M105 52.8L94 59.4L105 66L116 59.4L105 52.8Z" fill="#AEAEAE"/>
<path d="M94 33V46.2L105 39.6L94 33Z" fill="#AEAEAE"/>
</svg>
