<svg width="209" height="131" viewBox="0 0 209 131" fill="none" xmlns="http://www.w3.org/2000/svg">
<rect x="48" y="9" width="113" height="113" rx="24" fill="#1C1D21"/>
<path d="M153.6 16.4021C155.359 18.1612 156.835 20.1923 157.964 22.4101C159.115 24.6692 159.844 26.9832 160.29 29.4688C160.73 31.9173 160.875 34.414 160.943 36.89C160.973 38.0257 160.986 39.1627 160.993 40.2998C161 41.6484 161 42.9983 161 44.3482L160.999 86.6521C160.999 88.0006 161 89.3505 160.992 90.7005C160.985 91.8375 160.971 92.9732 160.941 94.1103C160.875 96.5863 160.728 99.083 160.289 101.532C159.841 104.019 159.112 106.331 157.963 108.59C156.839 110.798 155.381 112.829 153.63 114.584L153.584 114.584M153.6 16.4021C153.595 16.397 153.59 16.392 153.584 16.3869M153.6 16.4021L153.584 16.3869M153.6 16.4021L55.4021 114.598M153.584 16.3869C153.555 16.3571 153.525 16.3273 153.495 16.2977M153.584 16.3869V114.584M153.495 16.2977C151.758 14.5832 149.765 13.1442 147.59 12.0364C145.332 10.887 143.02 10.1578 140.536 9.71144C138.087 9.27062 135.588 9.12505 133.112 9.05776C131.975 9.02755 130.839 9.01382 129.702 9.00695C128.352 8.99871 127.002 9.00009 125.653 9.00009H83.3482C81.9983 9.00009 80.6484 9.00009 79.2998 9.00695C78.1628 9.01382 77.0257 9.02755 75.89 9.05776C73.414 9.12505 70.9146 9.27062 68.466 9.71144C65.9818 10.1578 63.6692 10.887 61.4115 12.0364C59.2363 13.1429 57.2432 14.5831 55.5071 16.2977M153.495 16.2977H55.5071M55.5071 16.2977C55.472 16.3323 55.437 16.3671 55.4021 16.4021M55.4021 16.4021C55.3672 16.4369 55.3325 16.4718 55.2979 16.5069M55.4021 16.4021L153.584 114.584M55.2979 16.5069C53.5833 18.243 52.1443 20.2362 51.0364 22.4101C49.887 24.6692 49.1578 26.9818 48.7115 29.4688C48.272 31.9173 48.1251 34.414 48.0591 36.89C48.0289 38.027 48.0152 39.1627 48.0083 40.2998C48.0001 41.6498 48.0001 42.9997 48.0001 44.3482V86.6521C48.0001 88.002 48.0001 89.3519 48.0083 90.7005C48.0152 91.8375 48.0289 92.9732 48.0591 94.1103C48.1264 96.5863 48.272 99.083 48.7115 101.532C49.1578 104.017 49.887 106.331 51.0364 108.59C52.1429 110.764 53.5832 112.759 55.2979 114.494M55.2979 16.5069V114.494M55.2979 114.494C55.3279 114.524 55.3581 114.554 55.3883 114.584M55.2979 114.494C55.3112 114.507 55.3246 114.521 55.338 114.534C55.3547 114.551 55.3715 114.568 55.3883 114.584M55.3883 114.584C55.3929 114.589 55.3975 114.594 55.4021 114.598M55.3883 114.584L55.4021 114.598M55.3883 114.584L153.584 114.584M55.4021 114.598C57.1626 116.359 59.1923 117.834 61.4115 118.964C63.6692 120.113 65.9818 120.843 68.466 121.289C70.9146 121.73 73.4126 121.875 75.89 121.943C77.0271 121.973 78.1628 121.986 79.2998 121.993C80.6498 122.002 81.9997 122 83.3482 122H125.652C127.002 122 128.352 122 129.7 121.993C130.838 121.986 131.973 121.973 133.11 121.943C135.586 121.875 138.084 121.73 140.534 121.289C143.019 120.843 145.331 120.113 147.589 118.964C149.798 117.84 151.829 116.381 153.584 114.63V114.584M83.3125 9.00008V122M125.57 9.00008V122M161 44.3125H48M161 86.5697H48M161 65.4994H48M104.382 122V9.00008M104.511 86.674C116.2 86.674 125.675 77.1987 125.675 65.5104C125.675 53.8221 116.2 44.3468 104.511 44.3468C92.8231 44.3468 83.3478 53.8221 83.3478 65.5104C83.3478 77.1987 92.8231 86.674 104.511 86.674ZM134.344 67.9782C135.707 51.5013 123.455 37.0389 106.978 35.6756C90.501 34.3122 76.0386 46.5642 74.6753 63.0411C73.312 79.5181 85.564 93.9805 102.041 95.3438C118.518 96.7071 132.98 84.4551 134.344 67.9782ZM104.512 114.595C131.621 114.595 153.597 92.6193 153.597 65.5104C153.597 38.4015 131.621 16.4254 104.512 16.4254C77.4035 16.4254 55.4274 38.4015 55.4274 65.5104C55.4274 92.6193 77.4035 114.595 104.512 114.595Z" stroke="#656565" stroke-miterlimit="10"/>
<path d="M121.91 41.0199C117.757 41.1454 112.97 41.8764 108.133 43.1227C100.969 44.97 93.8057 47.828 87.7986 51.2409C85.0431 52.8065 82.5711 54.4601 80.4004 56.1907C76.5064 59.2932 73.8395 62.4748 72.6766 65.4033C72.0719 66.9226 71.8681 68.4045 72.083 69.7058C72.588 72.7598 75.142 75.0475 79.3992 76.2585C80.9586 76.7011 82.7461 77.0005 84.6533 77.1393C86.5405 77.2758 88.709 77.267 90.7579 77.115L90.9461 77.0996L91.717 74.7987C92.4191 72.7069 92.4878 72.4889 92.4767 72.392C92.4501 72.1741 92.2907 71.9847 92.0824 71.923C91.9761 71.89 91.934 71.8922 91.3891 71.9539C90.3547 72.0684 89.3469 72.152 88.0865 72.2225C87.4243 72.2599 84.7286 72.2599 84.177 72.2225C82.2345 72.0904 80.9564 71.8856 79.7714 71.5223C78.0968 71.0071 77.0358 70.2078 76.7279 69.2346C76.5684 68.7303 76.595 68.0742 76.8032 67.4092C77.6206 64.7824 81.1336 61.2374 86.3478 57.7805C92.5941 53.6388 100.666 50.0387 108.387 47.9447C112.775 46.7557 117.199 45.9917 121.124 45.7429C122.973 45.624 124.883 45.624 126.384 45.7429C129.815 46.0093 132.134 46.8372 132.992 48.0967C133.238 48.46 133.348 48.7991 133.366 49.2637C133.428 50.7741 132.538 52.551 130.681 54.6252C130.338 55.0105 129.386 55.9595 128.932 56.3691C126.2 58.833 122.57 61.2858 118.244 63.5868C117.509 63.9765 115.515 64.9674 114.766 65.3131C112.011 66.5879 109.45 67.603 106.615 68.541C105.122 69.0364 104.766 69.1421 104.626 69.1289C104.394 69.1047 104.207 68.9373 104.154 68.7017C104.13 68.596 104.132 68.5652 104.172 68.4353C104.196 68.3538 105.435 64.8441 106.925 60.6363C108.416 56.4285 109.645 52.943 109.656 52.8901C109.723 52.6193 109.517 52.3265 109.218 52.2626C109.103 52.2406 109.072 52.2472 106.812 52.8395C105.552 53.1698 104.493 53.456 104.456 53.4736C104.367 53.5177 104.272 53.6079 104.23 53.6872C104.212 53.7224 102.927 57.6175 101.379 62.3405L98.5592 70.93L97.6997 73.275C96.734 75.9062 96.7717 75.7741 96.9023 75.9987C96.9577 76.0912 98.4728 77.4563 105.237 83.5071C110.859 88.5339 113.542 90.9163 113.61 90.9494C113.681 90.9846 113.756 91 113.847 91C113.976 91 114.04 90.9714 116.335 89.8947C118.765 88.7541 118.789 88.7409 118.88 88.5713C118.937 88.4657 118.933 88.197 118.873 88.0825C118.84 88.0187 116.915 86.277 111.752 81.6377C105.871 76.3554 104.668 75.2655 104.622 75.1774C104.509 74.9594 104.584 74.6446 104.781 74.5146C104.825 74.4838 105.229 74.3385 105.678 74.1888C110.088 72.7201 112.946 71.5707 116.527 69.8203C123.988 66.174 130.327 61.7857 134.015 57.7188C137.016 54.4072 138.343 51.263 137.925 48.4556C137.621 46.4299 136.556 44.8247 134.691 43.5829C131.928 41.7443 127.474 40.8525 121.91 41.0199Z" fill="white"/>
</svg>
