<svg width="209" height="131" viewBox="0 0 209 131" fill="none" xmlns="http://www.w3.org/2000/svg">
<rect x="48" y="9" width="113" height="113" rx="24" fill="#1C1D21"/>
<path d="M153.6 16.4021C155.359 18.1612 156.835 20.1923 157.964 22.4101C159.115 24.6692 159.844 26.9832 160.29 29.4688C160.73 31.9173 160.875 34.414 160.943 36.89C160.973 38.0257 160.986 39.1627 160.993 40.2998C161 41.6484 161 42.9983 161 44.3482L160.999 86.6521C160.999 88.0006 161 89.3505 160.992 90.7005C160.985 91.8375 160.971 92.9732 160.941 94.1103C160.875 96.5863 160.728 99.083 160.289 101.532C159.841 104.019 159.112 106.331 157.963 108.59C156.839 110.798 155.381 112.829 153.63 114.584L153.584 114.584M153.6 16.4021C153.595 16.397 153.59 16.392 153.584 16.3869M153.6 16.4021L153.584 16.3869M153.6 16.4021L55.4021 114.598M153.584 16.3869C153.555 16.3571 153.525 16.3273 153.495 16.2977M153.584 16.3869V114.584M153.495 16.2977C151.758 14.5832 149.765 13.1442 147.59 12.0364C145.332 10.887 143.02 10.1578 140.536 9.71144C138.087 9.27062 135.588 9.12505 133.112 9.05776C131.975 9.02755 130.839 9.01382 129.702 9.00695C128.352 8.99871 127.002 9.00009 125.653 9.00009H83.3482C81.9983 9.00009 80.6484 9.00009 79.2998 9.00695C78.1628 9.01382 77.0257 9.02755 75.89 9.05776C73.414 9.12505 70.9146 9.27062 68.466 9.71144C65.9818 10.1578 63.6692 10.887 61.4115 12.0364C59.2363 13.1429 57.2432 14.5831 55.5071 16.2977M153.495 16.2977H55.5071M55.5071 16.2977C55.472 16.3323 55.437 16.3671 55.4021 16.4021M55.4021 16.4021C55.3672 16.4369 55.3325 16.4718 55.2979 16.5069M55.4021 16.4021L153.584 114.584M55.2979 16.5069C53.5833 18.243 52.1443 20.2362 51.0364 22.4101C49.887 24.6692 49.1578 26.9818 48.7115 29.4688C48.272 31.9173 48.1251 34.414 48.0591 36.89C48.0289 38.027 48.0152 39.1627 48.0083 40.2998C48.0001 41.6498 48.0001 42.9997 48.0001 44.3482V86.6521C48.0001 88.002 48.0001 89.3519 48.0083 90.7005C48.0152 91.8375 48.0289 92.9732 48.0591 94.1103C48.1264 96.5863 48.272 99.083 48.7115 101.532C49.1578 104.017 49.887 106.331 51.0364 108.59C52.1429 110.764 53.5832 112.759 55.2979 114.494M55.2979 16.5069V114.494M55.2979 114.494C55.3279 114.524 55.3581 114.554 55.3883 114.584M55.2979 114.494C55.3112 114.507 55.3246 114.521 55.338 114.534C55.3547 114.551 55.3715 114.568 55.3883 114.584M55.3883 114.584C55.3929 114.589 55.3975 114.594 55.4021 114.598M55.3883 114.584L55.4021 114.598M55.3883 114.584L153.584 114.584M55.4021 114.598C57.1626 116.359 59.1923 117.834 61.4115 118.964C63.6692 120.113 65.9818 120.843 68.466 121.289C70.9146 121.73 73.4126 121.875 75.89 121.943C77.0271 121.973 78.1628 121.986 79.2998 121.993C80.6498 122.002 81.9997 122 83.3482 122H125.652C127.002 122 128.352 122 129.7 121.993C130.838 121.986 131.973 121.973 133.11 121.943C135.586 121.875 138.084 121.73 140.534 121.289C143.019 120.843 145.331 120.113 147.589 118.964C149.798 117.84 151.829 116.381 153.584 114.63V114.584M83.3125 9.00008V122M125.57 9.00008V122M161 44.3125H48M161 86.5697H48M161 65.4994H48M104.382 122V9.00008M104.511 86.674C116.2 86.674 125.675 77.1987 125.675 65.5104C125.675 53.8221 116.2 44.3468 104.511 44.3468C92.8231 44.3468 83.3478 53.8221 83.3478 65.5104C83.3478 77.1987 92.8231 86.674 104.511 86.674ZM134.344 67.9782C135.707 51.5013 123.455 37.0389 106.978 35.6756C90.501 34.3122 76.0386 46.5642 74.6753 63.0411C73.312 79.5181 85.564 93.9805 102.041 95.3438C118.518 96.7071 132.98 84.4551 134.344 67.9782ZM104.512 114.595C131.621 114.595 153.597 92.6193 153.597 65.5104C153.597 38.4015 131.621 16.4254 104.512 16.4254C77.4035 16.4254 55.4274 38.4015 55.4274 65.5104C55.4274 92.6193 77.4035 114.595 104.512 114.595Z" stroke="#656565" stroke-miterlimit="10"/>
<path d="M72.0001 69.6406V73.6797C72.0001 73.6797 72.0001 80.3398 76.5548 84.8945C81.1095 89.4492 87.6407 89.5781 87.6407 89.5781H94.7735C102.336 89.5781 102.422 83.2187 102.422 83.2187H87.6407C87.6407 83.2187 84.3321 83.2187 81.4102 80.2968C78.4884 77.375 78.8751 73.6797 78.8751 73.6797V69.6406C78.8751 69.6406 78.8751 64.8711 81.1524 62.5937C83.4298 60.3164 86.0079 59.7578 87.6407 59.7578H95.5469V65.6875C95.5469 65.6875 95.5469 67.2343 97.8672 69.5546C100.188 71.875 102.25 71.3593 102.25 71.3593V53.3125H87.6407C87.6407 53.3125 81.1954 53.3125 76.5548 57.9531C71.9142 62.5937 72.0001 69.6406 72.0001 69.6406Z" fill="white"/>
<path d="M98.4688 43H123.047C125.281 43 129.492 43.3867 133.746 47.6406C138 51.8945 138 58.7265 138 58.7265V62.8515C138 62.8515 138 69.8984 133.875 74.0234C129.75 78.1484 125.883 79.0078 123.562 79.0078H116.344V72.9062H121.156C121.156 72.9062 125.539 72.8632 128.332 70.0703C131.125 67.2773 131.125 62.8515 131.125 62.8515V58.7265C131.125 58.7265 131.125 54.1719 128.762 52.0234C126.398 49.875 124.68 49.0156 122.703 49.0156H91.7657C91.7657 49.0156 91.6798 46.6094 93.6563 44.8047C95.6329 43 98.4688 43 98.4688 43Z" fill="white"/>
<path d="M107.75 89.4062V66.4609C107.75 61.0468 114.281 61.0468 114.281 61.0468V83.7343C114.281 89.4062 107.75 89.4062 107.75 89.4062Z" fill="white"/>
</svg>
