<svg width="209" height="131" viewBox="0 0 209 131" fill="none" xmlns="http://www.w3.org/2000/svg">
<rect x="48" y="9" width="113" height="113" rx="24" fill="#1C1D21"/>
<path d="M153.6 16.4021C155.359 18.1612 156.835 20.1923 157.964 22.4101C159.115 24.6692 159.844 26.9832 160.29 29.4688C160.73 31.9173 160.875 34.414 160.943 36.89C160.973 38.0257 160.986 39.1627 160.993 40.2998C161 41.6484 161 42.9983 161 44.3482L160.999 86.6521C160.999 88.0006 161 89.3505 160.992 90.7005C160.985 91.8375 160.971 92.9732 160.941 94.1103C160.875 96.5863 160.728 99.083 160.289 101.532C159.841 104.019 159.112 106.331 157.963 108.59C156.839 110.798 155.381 112.829 153.63 114.584L153.584 114.584M153.6 16.4021C153.595 16.397 153.59 16.392 153.584 16.3869M153.6 16.4021L153.584 16.3869M153.6 16.4021L55.4021 114.598M153.584 16.3869C153.555 16.3571 153.525 16.3273 153.495 16.2977M153.584 16.3869V114.584M153.495 16.2977C151.758 14.5832 149.765 13.1442 147.59 12.0364C145.332 10.887 143.02 10.1578 140.536 9.71144C138.087 9.27062 135.588 9.12505 133.112 9.05776C131.975 9.02755 130.839 9.01382 129.702 9.00695C128.352 8.99871 127.002 9.00009 125.653 9.00009H83.3482C81.9983 9.00009 80.6484 9.00009 79.2998 9.00695C78.1628 9.01382 77.0257 9.02755 75.89 9.05776C73.414 9.12505 70.9146 9.27062 68.466 9.71144C65.9818 10.1578 63.6692 10.887 61.4115 12.0364C59.2363 13.1429 57.2432 14.5831 55.5071 16.2977M153.495 16.2977H55.5071M55.5071 16.2977C55.472 16.3323 55.437 16.3671 55.4021 16.4021M55.4021 16.4021C55.3672 16.4369 55.3325 16.4718 55.2979 16.5069M55.4021 16.4021L153.584 114.584M55.2979 16.5069C53.5833 18.243 52.1443 20.2362 51.0364 22.4101C49.887 24.6692 49.1578 26.9818 48.7115 29.4688C48.272 31.9173 48.1251 34.414 48.0591 36.89C48.0289 38.027 48.0152 39.1627 48.0083 40.2998C48.0001 41.6498 48.0001 42.9997 48.0001 44.3482V86.6521C48.0001 88.002 48.0001 89.3519 48.0083 90.7005C48.0152 91.8375 48.0289 92.9732 48.0591 94.1103C48.1264 96.5863 48.272 99.083 48.7115 101.532C49.1578 104.017 49.887 106.331 51.0364 108.59C52.1429 110.764 53.5832 112.759 55.2979 114.494M55.2979 16.5069V114.494M55.2979 114.494C55.3279 114.524 55.3581 114.554 55.3883 114.584M55.2979 114.494C55.3112 114.507 55.3246 114.521 55.338 114.534C55.3547 114.551 55.3715 114.568 55.3883 114.584M55.3883 114.584C55.3929 114.589 55.3975 114.594 55.4021 114.598M55.3883 114.584L55.4021 114.598M55.3883 114.584L153.584 114.584M55.4021 114.598C57.1626 116.359 59.1923 117.834 61.4115 118.964C63.6692 120.113 65.9818 120.843 68.466 121.289C70.9146 121.73 73.4126 121.875 75.89 121.943C77.0271 121.973 78.1628 121.986 79.2998 121.993C80.6498 122.002 81.9997 122 83.3482 122H125.652C127.002 122 128.352 122 129.7 121.993C130.838 121.986 131.973 121.973 133.11 121.943C135.586 121.875 138.084 121.73 140.534 121.289C143.019 120.843 145.331 120.113 147.589 118.964C149.798 117.84 151.829 116.381 153.584 114.63V114.584M83.3125 9.00008V122M125.57 9.00008V122M161 44.3125H48M161 86.5697H48M161 65.4994H48M104.382 122V9.00008M104.511 86.674C116.2 86.674 125.675 77.1987 125.675 65.5104C125.675 53.8221 116.2 44.3468 104.511 44.3468C92.8231 44.3468 83.3478 53.8221 83.3478 65.5104C83.3478 77.1987 92.8231 86.674 104.511 86.674ZM134.344 67.9782C135.707 51.5013 123.455 37.0389 106.978 35.6756C90.501 34.3122 76.0386 46.5642 74.6753 63.0411C73.312 79.5181 85.564 93.9805 102.041 95.3438C118.518 96.7071 132.98 84.4551 134.344 67.9782ZM104.512 114.595C131.621 114.595 153.597 92.6193 153.597 65.5104C153.597 38.4015 131.621 16.4254 104.512 16.4254C77.4035 16.4254 55.4274 38.4015 55.4274 65.5104C55.4274 92.6193 77.4035 114.595 104.512 114.595Z" stroke="#656565" stroke-miterlimit="10"/>
<path d="M135.82 55.2407C126.721 45.4343 111.716 39.5779 95.6845 39.5779C87.6704 39.5779 79.7477 41.0696 72.7649 43.8931L72.2626 42.6526C79.4052 39.7681 87.503 38.2422 95.6845 38.2422C112.086 38.2422 127.455 44.2546 136.801 54.3312L135.82 55.2407Z" fill="white" stroke="white" stroke-width="0.3" stroke-linejoin="round"/>
<path d="M72.7877 47.6718L72.236 46.4503C73.4346 45.9099 74.6866 45.4038 75.9652 44.9434L76.418 46.2067C75.1737 46.652 73.9522 47.1467 72.7877 47.6718Z" fill="white" stroke="white" stroke-width="0.3" stroke-linejoin="round"/>
<path d="M134.769 60.2713C127.17 49.5897 112.196 42.9531 95.6845 42.9531C89.0176 42.9531 82.3582 44.0795 76.418 46.2105L75.9652 44.9471C82.0462 42.7667 88.8653 41.6136 95.6845 41.6136C112.622 41.6136 128.015 48.4671 135.861 59.495L134.769 60.2713Z" fill="white" stroke="white" stroke-width="0.3" stroke-linejoin="round"/>
<path d="M136.82 63.5667C136.204 62.4251 135.511 61.3178 134.769 60.2713L135.861 59.495C136.638 60.5871 137.357 61.7401 138 62.9312L136.82 63.5667Z" fill="white" stroke="white" stroke-width="0.3" stroke-linejoin="round"/>
<path d="M135.766 73.1448C131.333 56.5231 116.039 46.1916 95.8519 46.1916C87.5448 46.1916 79.584 48.0866 72.8295 51.6713L72.2017 50.4878C79.1502 46.8004 87.3317 44.8483 95.8519 44.8483C116.602 44.8483 132.357 55.4842 137.011 72.6197L135.766 73.1448Z" fill="white" stroke="white" stroke-width="0.3" stroke-linejoin="round"/>
<path d="M72.8714 55.8572L72.1522 54.727C73.2672 54.0192 74.4468 53.3494 75.6722 52.7444L76.2696 53.9469C75.0861 54.5291 73.9445 55.176 72.8714 55.8572Z" fill="white" stroke="white" stroke-width="0.3" stroke-linejoin="round"/>
<path d="M132.166 76.3299C129.944 66.3333 122.25 49.5669 95.6807 49.5669C88.7473 49.5669 82.0309 51.0814 76.262 53.9469L75.6646 52.7444C81.6161 49.7914 88.5381 48.2274 95.6769 48.2274C123.182 48.2274 131.158 65.6521 133.468 76.0369L132.166 76.3299Z" fill="white" stroke="white" stroke-width="0.3" stroke-linejoin="round"/>
<path d="M132.844 80.1885L132.798 79.884C132.692 79.1458 132.513 77.9052 132.166 76.3374L133.475 76.0444C133.837 77.6655 134.016 78.9365 134.126 79.6938L134.168 79.9906L132.844 80.1885Z" fill="white" stroke="white" stroke-width="0.3" stroke-linejoin="round"/>
<path d="M128.886 85.8091C127.649 58.5361 110.331 52.8091 96.0193 52.8091C87.0539 52.8091 78.8572 55.4348 72.9361 60.2029L72.0951 59.1564C78.256 54.198 86.7495 51.4696 96.0193 51.4696C110.917 51.4696 128.943 57.4136 130.226 85.7444L128.886 85.8091Z" fill="white" stroke="white" stroke-width="0.3" stroke-linejoin="round"/>
<path d="M124.407 90.0673L124.419 89.8998C124.7 86.0336 124.974 72.7225 116.804 63.9435C111.933 58.7112 104.886 56.0551 95.8519 56.0551C86.818 56.0551 77.963 59.7272 73.0274 65.6407L72 64.7807C77.1829 58.5742 86.3233 54.7156 95.8519 54.7156C105.381 54.7156 112.653 57.5125 117.786 63.0303C126.325 72.205 126.044 85.9917 125.754 89.995L124.407 90.0673Z" fill="white" stroke="white" stroke-width="0.3" stroke-linejoin="round"/>
<path d="M72.7382 40.179L72.2854 38.9156C73.5145 38.478 74.8007 38.0632 76.106 37.6903L76.4751 38.9765C75.1965 39.3456 73.9407 39.749 72.7382 40.179Z" fill="white" stroke="white" stroke-width="0.3" stroke-linejoin="round"/>
<path d="M127.916 44.3117C118.886 39.1707 107.439 36.3357 95.6845 36.3357C89.0366 36.3357 82.5751 37.2261 76.4751 38.9804L76.1022 37.6942C82.3201 35.9057 88.9072 35 95.6807 35C107.839 35 119.213 37.816 128.574 43.1472L127.916 44.3117Z" fill="white" stroke="white" stroke-width="0.3" stroke-linejoin="round"/>
<path d="M131.238 46.3781C130.188 45.6627 129.069 44.9701 127.916 44.3118L128.582 43.1511C129.761 43.8247 130.911 44.5363 131.991 45.2707L131.238 46.3781Z" fill="white" stroke="white" stroke-width="0.3" stroke-linejoin="round"/>
<path d="M97.6899 96.8521L96.3923 96.5134C97.1305 93.6594 97.5073 90.7407 97.5073 87.8372C97.5073 83.8302 96.7957 79.8346 95.3877 75.9569L96.6473 75.4965C98.1085 79.5225 98.8506 83.6703 98.8506 87.8334C98.8468 90.8548 98.4586 93.8839 97.6899 96.8521Z" fill="white" stroke="white" stroke-width="0.3" stroke-linejoin="round"/>
<path d="M91.978 96.8597L90.688 96.502C92.4423 90.2041 91.6127 84.949 90.943 80.7288C90.4102 77.3611 89.9878 74.7012 91.3425 73.0268C92.1911 71.9803 93.6105 71.4324 95.8138 71.3144C97.8307 71.2078 99.4594 71.9271 100.734 73.4492C105.54 79.1915 103.299 94.6906 102.797 96.8331L101.495 96.5248C102.275 93.2066 103.816 79.2181 99.7105 74.3092C98.7059 73.1067 97.4653 72.5778 95.8899 72.6501C94.1166 72.7452 92.9712 73.1448 92.3852 73.8678C91.4072 75.0779 91.784 77.4791 92.2672 80.5195C92.9141 84.6369 93.8084 90.2802 91.978 96.8597Z" fill="white" stroke="white" stroke-width="0.3" stroke-linejoin="round"/>
<path d="M87.522 96.8787L86.2434 96.483C87.7732 91.5322 87.2404 86.4445 86.7724 81.9542C86.27 77.148 85.84 73.0002 88.1499 70.4392C89.6606 68.761 92.2368 67.9429 96.0194 67.9429C99.5355 67.9429 102.363 69.2481 104.425 71.8243C109.878 78.6397 108.368 92.1829 107.325 96.8217L106.016 96.5286C106.952 92.3618 108.478 79.0317 103.375 72.6615C101.579 70.4202 99.1055 69.2824 96.0155 69.2824C92.6364 69.2824 90.3874 69.9521 89.1431 71.3334C87.2328 73.453 87.6362 77.3269 88.1042 81.8134C88.5837 86.4331 89.1317 91.6692 87.522 96.8787Z" fill="white" stroke="white" stroke-width="0.3" stroke-linejoin="round"/>
<path d="M83.0203 96.9283L81.7759 96.4336C83.3057 92.5902 82.7806 87.7726 82.2706 83.1111C81.6389 77.3307 81.0415 71.8777 84.219 68.3349C86.4109 65.8919 90.1629 64.7046 95.6883 64.7046C101.214 64.7046 105.16 66.4855 108.04 69.994C115.107 78.6093 112.143 94.7364 111.785 96.5477L110.472 96.2852C110.822 94.5385 113.684 78.9823 107.005 70.8464C104.391 67.6613 100.586 66.0441 95.6883 66.0441C90.7908 66.0441 87.1415 67.0867 85.2198 69.233C82.4457 72.3267 83.0089 77.4982 83.6063 82.9665C84.1276 87.7878 84.6718 92.7766 83.0203 96.9283Z" fill="white" stroke="white" stroke-width="0.3" stroke-linejoin="round"/>
<path d="M78.4996 96.913L77.2438 96.4488C78.2256 93.7812 78.7241 90.9691 78.7241 88.0884C78.7241 85.2078 78.0391 82.7343 77.4341 80.512C76.966 78.7881 76.5588 77.2964 76.5588 75.9798C76.5588 67.9048 85.2122 61.333 95.8482 61.333C102.523 61.333 107.736 63.4906 111.344 67.7526C119.289 77.1328 116.827 93.5605 116.519 95.4023L115.198 95.1816C115.495 93.4045 117.877 77.54 110.324 68.6203C106.983 64.6741 102.112 62.6725 95.8482 62.6725C85.9504 62.6725 77.8983 68.6431 77.8983 75.9798C77.8983 77.1176 78.2827 78.5256 78.7241 80.1619C79.352 82.4641 80.0598 85.0746 80.0598 88.0884C80.0636 91.1289 79.5346 94.0971 78.4996 96.913Z" fill="white" stroke="white" stroke-width="0.3" stroke-linejoin="round"/>
<path d="M74.2833 96.9321L73.0427 96.4336C75.558 90.1928 74.6942 87.1714 73.6896 83.6743C73.1264 81.7107 72.5404 79.6787 72.5404 76.9578C72.5404 66.0898 82.636 57.8969 96.0194 57.8969C103.767 57.8969 109.886 60.3094 114.209 65.0737C122.451 74.1571 121.725 88.9637 121.306 93.2866L119.974 93.1534C120.377 88.9713 121.093 74.648 113.22 65.9756C109.159 61.5005 103.375 59.2363 96.0232 59.2363C83.4009 59.2363 73.8837 66.8546 73.8837 76.9616C73.8837 79.4922 74.4393 81.4329 74.9796 83.309C75.9995 86.8822 76.9698 90.2651 74.2833 96.9321Z" fill="white" stroke="white" stroke-width="0.3" stroke-linejoin="round"/>
</svg>
