<svg width="209" height="131" viewBox="0 0 209 131" fill="none" xmlns="http://www.w3.org/2000/svg">
<rect x="48" y="9" width="113" height="113" rx="24" fill="#1C1D21"/>
<path d="M153.6 16.4021C155.359 18.1612 156.835 20.1923 157.964 22.4101C159.115 24.6692 159.844 26.9832 160.29 29.4688C160.73 31.9173 160.875 34.414 160.943 36.89C160.973 38.0257 160.986 39.1627 160.993 40.2998C161 41.6484 161 42.9983 161 44.3482L160.999 86.6521C160.999 88.0006 161 89.3505 160.992 90.7005C160.985 91.8375 160.971 92.9732 160.941 94.1103C160.875 96.5863 160.728 99.083 160.289 101.532C159.841 104.019 159.112 106.331 157.963 108.59C156.839 110.798 155.381 112.829 153.63 114.584L153.584 114.584M153.6 16.4021C153.595 16.397 153.59 16.392 153.584 16.3869M153.6 16.4021L153.584 16.3869M153.6 16.4021L55.4021 114.598M153.584 16.3869C153.555 16.3571 153.525 16.3273 153.495 16.2977M153.584 16.3869V114.584M153.495 16.2977C151.758 14.5832 149.765 13.1442 147.59 12.0364C145.332 10.887 143.02 10.1578 140.536 9.71144C138.087 9.27062 135.588 9.12505 133.112 9.05776C131.975 9.02755 130.839 9.01382 129.702 9.00695C128.352 8.99871 127.002 9.00009 125.653 9.00009H83.3482C81.9983 9.00009 80.6484 9.00009 79.2998 9.00695C78.1628 9.01382 77.0257 9.02755 75.89 9.05776C73.414 9.12505 70.9146 9.27062 68.466 9.71144C65.9818 10.1578 63.6692 10.887 61.4115 12.0364C59.2363 13.1429 57.2432 14.5831 55.5071 16.2977M153.495 16.2977H55.5071M55.5071 16.2977C55.472 16.3323 55.437 16.3671 55.4021 16.4021M55.4021 16.4021C55.3672 16.4369 55.3325 16.4718 55.2979 16.5069M55.4021 16.4021L153.584 114.584M55.2979 16.5069C53.5833 18.243 52.1443 20.2362 51.0364 22.4101C49.887 24.6692 49.1578 26.9818 48.7115 29.4688C48.272 31.9173 48.1251 34.414 48.0591 36.89C48.0289 38.027 48.0152 39.1627 48.0083 40.2998C48.0001 41.6498 48.0001 42.9997 48.0001 44.3482V86.6521C48.0001 88.002 48.0001 89.3519 48.0083 90.7005C48.0152 91.8375 48.0289 92.9732 48.0591 94.1103C48.1264 96.5863 48.272 99.083 48.7115 101.532C49.1578 104.017 49.887 106.331 51.0364 108.59C52.1429 110.764 53.5832 112.759 55.2979 114.494M55.2979 16.5069V114.494M55.2979 114.494C55.3279 114.524 55.3581 114.554 55.3883 114.584M55.2979 114.494C55.3112 114.507 55.3246 114.521 55.338 114.534C55.3547 114.551 55.3715 114.568 55.3883 114.584M55.3883 114.584C55.3929 114.589 55.3975 114.594 55.4021 114.598M55.3883 114.584L55.4021 114.598M55.3883 114.584L153.584 114.584M55.4021 114.598C57.1626 116.359 59.1923 117.834 61.4115 118.964C63.6692 120.113 65.9818 120.843 68.466 121.289C70.9146 121.73 73.4126 121.875 75.89 121.943C77.0271 121.973 78.1628 121.986 79.2998 121.993C80.6498 122.002 81.9997 122 83.3482 122H125.652C127.002 122 128.352 122 129.7 121.993C130.838 121.986 131.973 121.973 133.11 121.943C135.586 121.875 138.084 121.73 140.534 121.289C143.019 120.843 145.331 120.113 147.589 118.964C149.798 117.84 151.829 116.381 153.584 114.63V114.584M83.3125 9.00008V122M125.57 9.00008V122M161 44.3125H48M161 86.5697H48M161 65.4994H48M104.382 122V9.00008M104.511 86.674C116.2 86.674 125.675 77.1987 125.675 65.5104C125.675 53.8221 116.2 44.3468 104.511 44.3468C92.8231 44.3468 83.3478 53.8221 83.3478 65.5104C83.3478 77.1987 92.8231 86.674 104.511 86.674ZM134.344 67.9782C135.707 51.5013 123.455 37.0389 106.978 35.6756C90.501 34.3122 76.0386 46.5642 74.6753 63.0411C73.312 79.5181 85.564 93.9805 102.041 95.3438C118.518 96.7071 132.98 84.4551 134.344 67.9782ZM104.512 114.595C131.621 114.595 153.597 92.6193 153.597 65.5104C153.597 38.4015 131.621 16.4254 104.512 16.4254C77.4035 16.4254 55.4274 38.4015 55.4274 65.5104C55.4274 92.6193 77.4035 114.595 104.512 114.595Z" stroke="#656565" stroke-miterlimit="10"/>
<path d="M108.233 52.4711L113.241 53.7111C113.814 53.8531 113.934 54.615 113.432 54.9259C112.653 55.408 111.647 55.3 110.988 54.6636L109.798 53.5142L110.946 53.7228L108.233 52.4711Z" fill="white"/>
<path d="M85.3773 63.6202C86.3462 63.3857 92.6627 64.8079 93.6301 65.0423C89.4577 63.9243 87.5801 60.654 91.6793 58.2873L104.892 50.6591C106.463 49.7522 108.651 49.411 110.398 49.879L123.493 53.5194L124.89 53.7622L128.184 41.4699C128.482 40.357 127.822 39.213 126.709 38.9148L116.626 36.2133C115.574 35.9314 114.467 35.9289 113.414 36.2061L112.578 36.4259C112.04 36.5675 111.524 36.7802 111.042 37.0583L97.9843 44.5971C97.4666 44.896 96.9088 45.1192 96.3278 45.2599L96.2143 45.2874C95.1965 45.5338 94.1331 45.5209 93.1216 45.2499L81.7663 42.2072C80.6534 41.909 79.5094 42.5695 79.2112 43.6824L76.4575 53.9596C76.1593 55.0725 76.8197 56.2164 77.9326 56.5147V56.5147C80.8708 57.3019 84.965 58.8833 84.0786 61.793C83.5636 63.4833 81.4757 65.099 78.4899 67.265L83.6072 64.3105C84.1249 64.0116 84.6828 63.7884 85.2638 63.6477L85.3773 63.6202Z" fill="white"/>
<path d="M73.9485 75.1014L85.1099 78.0921L100.244 69.5405C101.191 69.0057 101.72 67.208 100.357 66.8428L93.6301 65.0423C92.6627 64.8079 86.3462 63.3857 85.3773 63.6202L85.2638 63.6477C84.6828 63.7884 84.1249 64.0116 83.6072 64.3105L78.4899 67.265L73.3725 70.2195C73.0541 70.4033 72.7763 70.6499 72.5561 70.9444L72.5239 70.9874C71.9239 71.7893 71.8318 72.8626 72.2863 73.7551C72.6245 74.4192 73.2286 74.9085 73.9485 75.1014Z" fill="white"/>
<path d="M136.052 56.7528L124.89 53.7621L123.493 53.5193C123.716 53.5812 123.893 53.7502 123.965 53.9698L123.979 54.0127C124.051 54.2328 124.064 54.4678 124.018 54.6947L123.359 57.8951L122.61 56.5136C122.276 55.8983 121.503 55.676 120.894 56.0203L109.756 62.3137C108.777 62.8666 108.279 64.6459 109.643 65.0114L116.596 66.8745L121.53 68.1965C122.542 68.4675 123.632 68.488 124.65 68.2415L124.763 68.2141C125.344 68.0734 125.902 67.8502 126.42 67.5513L131.534 64.5871L136.628 61.6347C136.946 61.4509 137.224 61.2043 137.444 60.9098L137.476 60.8668C138.076 60.0649 138.168 58.9916 137.714 58.0991C137.376 57.435 136.772 56.9457 136.052 56.7528Z" fill="white"/>
<path d="M124.763 68.2141L124.65 68.2415C123.632 68.488 122.542 68.4675 121.53 68.1965L116.596 66.8745C122.094 68.43 121.452 71.7822 114.898 75.5663L105.135 81.2027C103.564 82.1095 101.376 82.4508 99.6292 81.9828L85.11 78.092L81.8163 90.384C81.5181 91.4969 82.2053 92.6488 83.3183 92.947L93.4006 95.6485C94.4527 95.9304 95.5601 95.9329 96.6134 95.6557L97.4486 95.4359C97.9866 95.2943 98.5033 95.0816 98.985 94.8035L112.043 87.2647C112.56 86.9658 113.118 86.7426 113.699 86.6019L113.813 86.5744C114.83 86.328 115.894 86.3409 116.905 86.6119L128.261 89.6546C129.374 89.9528 130.518 89.2923 130.816 88.1794L133.57 77.9022C133.868 76.7893 133.207 75.6453 132.094 75.3471L131.257 75.1227C128.867 74.4825 125.865 73.3959 125.825 70.9227C125.793 68.9015 128.051 67.1139 131.534 64.5871L126.42 67.5513C125.902 67.8502 125.344 68.0734 124.763 68.2141Z" fill="white"/>
</svg>
