<svg width="209" height="131" viewBox="0 0 209 131" fill="none" xmlns="http://www.w3.org/2000/svg">
<rect x="48" y="9" width="113" height="113" rx="24" fill="#1C1D21"/>
<path d="M153.6 16.4021C155.359 18.1612 156.835 20.1923 157.964 22.4101C159.115 24.6692 159.844 26.9832 160.29 29.4688C160.73 31.9173 160.875 34.414 160.943 36.89C160.973 38.0257 160.986 39.1627 160.993 40.2998C161 41.6484 161 42.9983 161 44.3482L160.999 86.6521C160.999 88.0006 161 89.3505 160.992 90.7005C160.985 91.8375 160.971 92.9732 160.941 94.1103C160.875 96.5863 160.728 99.083 160.289 101.532C159.841 104.019 159.112 106.331 157.963 108.59C156.839 110.798 155.381 112.829 153.63 114.584L153.584 114.584M153.6 16.4021C153.595 16.397 153.59 16.392 153.584 16.3869M153.6 16.4021L153.584 16.3869M153.6 16.4021L55.4021 114.598M153.584 16.3869C153.555 16.3571 153.525 16.3273 153.495 16.2977M153.584 16.3869V114.584M153.495 16.2977C151.758 14.5832 149.765 13.1442 147.59 12.0364C145.332 10.887 143.02 10.1578 140.536 9.71144C138.087 9.27062 135.588 9.12505 133.112 9.05776C131.975 9.02755 130.839 9.01382 129.702 9.00695C128.352 8.99871 127.002 9.00009 125.653 9.00009H83.3482C81.9983 9.00009 80.6484 9.00009 79.2998 9.00695C78.1628 9.01382 77.0257 9.02755 75.89 9.05776C73.414 9.12505 70.9146 9.27062 68.466 9.71144C65.9818 10.1578 63.6692 10.887 61.4115 12.0364C59.2363 13.1429 57.2432 14.5831 55.5071 16.2977M153.495 16.2977H55.5071M55.5071 16.2977C55.472 16.3323 55.437 16.3671 55.4021 16.4021M55.4021 16.4021C55.3672 16.4369 55.3325 16.4718 55.2979 16.5069M55.4021 16.4021L153.584 114.584M55.2979 16.5069C53.5833 18.243 52.1443 20.2362 51.0364 22.4101C49.887 24.6692 49.1578 26.9818 48.7115 29.4688C48.272 31.9173 48.1251 34.414 48.0591 36.89C48.0289 38.027 48.0152 39.1627 48.0083 40.2998C48.0001 41.6498 48.0001 42.9997 48.0001 44.3482V86.6521C48.0001 88.002 48.0001 89.3519 48.0083 90.7005C48.0152 91.8375 48.0289 92.9732 48.0591 94.1103C48.1264 96.5863 48.272 99.083 48.7115 101.532C49.1578 104.017 49.887 106.331 51.0364 108.59C52.1429 110.764 53.5832 112.759 55.2979 114.494M55.2979 16.5069V114.494M55.2979 114.494C55.3279 114.524 55.3581 114.554 55.3883 114.584M55.2979 114.494C55.3112 114.507 55.3246 114.521 55.338 114.534C55.3547 114.551 55.3715 114.568 55.3883 114.584M55.3883 114.584C55.3929 114.589 55.3975 114.594 55.4021 114.598M55.3883 114.584L55.4021 114.598M55.3883 114.584L153.584 114.584M55.4021 114.598C57.1626 116.359 59.1923 117.834 61.4115 118.964C63.6692 120.113 65.9818 120.843 68.466 121.289C70.9146 121.73 73.4126 121.875 75.89 121.943C77.0271 121.973 78.1628 121.986 79.2998 121.993C80.6498 122.002 81.9997 122 83.3482 122H125.652C127.002 122 128.352 122 129.7 121.993C130.838 121.986 131.973 121.973 133.11 121.943C135.586 121.875 138.084 121.73 140.534 121.289C143.019 120.843 145.331 120.113 147.589 118.964C149.798 117.84 151.829 116.381 153.584 114.63V114.584M83.3125 9.00008V122M125.57 9.00008V122M161 44.3125H48M161 86.5697H48M161 65.4994H48M104.382 122V9.00008M104.511 86.674C116.2 86.674 125.675 77.1987 125.675 65.5104C125.675 53.8221 116.2 44.3468 104.511 44.3468C92.8231 44.3468 83.3478 53.8221 83.3478 65.5104C83.3478 77.1987 92.8231 86.674 104.511 86.674ZM134.344 67.9782C135.707 51.5013 123.455 37.0389 106.978 35.6756C90.501 34.3122 76.0386 46.5642 74.6753 63.0411C73.312 79.5181 85.564 93.9805 102.041 95.3438C118.518 96.7071 132.98 84.4551 134.344 67.9782ZM104.512 114.595C131.621 114.595 153.597 92.6193 153.597 65.5104C153.597 38.4015 131.621 16.4254 104.512 16.4254C77.4035 16.4254 55.4274 38.4015 55.4274 65.5104C55.4274 92.6193 77.4035 114.595 104.512 114.595Z" stroke="#656565" stroke-miterlimit="10"/>
<path d="M138 66H105V33L106.704 33.4209C107.679 33.6617 108.593 34.103 109.387 34.7166C110.071 35.2446 110.655 35.891 111.111 36.6251L111.135 36.6643C111.598 37.4111 111.927 38.2337 112.105 39.0944L112.307 40.0714L114.057 40.5842C115.025 40.8678 115.925 41.3511 116.696 42.0013C117.378 42.5762 117.949 43.2731 118.378 44.055C118.806 44.8348 119.086 45.6867 119.205 46.5682L119.379 47.85L115.488 48.5482C109.709 49.5856 105.432 54.5077 105.211 60.3753L105 66L110.824 65.7843C116.708 65.5664 121.642 61.2695 122.665 55.4711L123.386 51.3857L125.164 51.7483C125.9 51.8984 126.606 52.1688 127.255 52.5487C128.197 53.1011 128.994 53.8712 129.578 54.7946L129.631 54.8789C130.022 55.4978 130.318 56.1725 130.507 56.88L130.929 58.4571L132.257 58.799C133.194 59.0402 134.074 59.4627 134.848 60.0427C135.53 60.5533 136.118 61.1776 136.588 61.8883L136.605 61.9153C137.137 62.721 137.511 63.6208 137.705 64.5665L138 66Z" fill="white"/>
<path d="M72 66H105V33L103.296 33.4209C102.321 33.6617 101.407 34.103 100.613 34.7166C99.9288 35.2446 99.3452 35.891 98.8895 36.6251L98.8651 36.6643C98.4015 37.4111 98.0731 38.2337 97.895 39.0944L97.6929 40.0714L95.9428 40.5842C94.9748 40.8678 94.0754 41.3511 93.3042 42.0013C92.6223 42.5762 92.0514 43.2731 91.6223 44.055C91.1944 44.8348 90.9139 45.6867 90.7947 46.5682L90.6214 47.85L94.5115 48.5482C100.291 49.5856 104.568 54.5077 104.789 60.3753L105 66L99.1756 65.7843C93.2916 65.5664 88.3585 61.2695 87.3352 55.4711L86.6143 51.3857L84.8363 51.7483C84.1 51.8984 83.3935 52.1688 82.7452 52.5487C81.8026 53.1011 81.006 53.8712 80.4222 54.7946L80.3689 54.8789C79.9776 55.4978 79.6823 56.1725 79.4932 56.88L79.0714 58.4571L77.7432 58.799C76.8063 59.0402 75.9258 59.4627 75.1515 60.0427C74.4699 60.5533 73.8815 61.1776 73.4123 61.8883L73.3945 61.9153C72.8626 62.721 72.4893 63.6208 72.2948 64.5665L72 66Z" fill="white"/>
<path d="M138 66H105V99L106.704 98.579C107.679 98.3383 108.593 97.897 109.387 97.2834C110.071 96.7554 110.655 96.109 111.111 95.3749L111.135 95.3357C111.598 94.5889 111.927 93.7663 112.105 92.9056L112.307 91.9286L114.057 91.4158C115.025 91.1322 115.925 90.6489 116.696 89.9987C117.378 89.4238 117.949 88.7269 118.378 87.945C118.806 87.1652 119.086 86.3133 119.205 85.4318L119.379 84.15L115.488 83.4518C109.709 82.4144 105.432 77.4923 105.211 71.6247L105 66L110.824 66.2157C116.708 66.4336 121.642 70.7305 122.665 76.5289L123.386 80.6143L125.164 80.2517C125.9 80.1016 126.606 79.8312 127.255 79.4513C128.197 78.8989 128.994 78.1288 129.578 77.2054L129.631 77.1211C130.022 76.5022 130.318 75.8275 130.507 75.12L130.929 73.5429L132.257 73.201C133.194 72.9598 134.074 72.5373 134.848 71.9573C135.53 71.4467 136.118 70.8224 136.588 70.1117L136.605 70.0847C137.137 69.279 137.511 68.3792 137.705 67.4335L138 66Z" fill="white"/>
<path d="M72 66H105V99L103.296 98.579C102.321 98.3383 101.407 97.897 100.613 97.2834C99.9288 96.7554 99.3452 96.109 98.8895 95.3749L98.8651 95.3357C98.4015 94.5889 98.0731 93.7663 97.895 92.9056L97.6929 91.9286L95.9428 91.4158C94.9748 91.1322 94.0754 90.6489 93.3042 89.9987C92.6223 89.4238 92.0514 88.7269 91.6223 87.945C91.1944 87.1652 90.9139 86.3133 90.7947 85.4318L90.6214 84.15L94.5115 83.4518C100.291 82.4144 104.568 77.4923 104.789 71.6247L105 66L99.1756 66.2157C93.2916 66.4336 88.3585 70.7305 87.3352 76.5289L86.6143 80.6143L84.8363 80.2517C84.1 80.1016 83.3935 79.8312 82.7452 79.4513C81.8026 78.8989 81.006 78.1288 80.4222 77.2054L80.3689 77.1211C79.9776 76.5022 79.6823 75.8275 79.4932 75.12L79.0714 73.5429L77.7432 73.201C76.8063 72.9598 75.9258 72.5373 75.1515 71.9573C74.4699 71.4467 73.8815 70.8224 73.4123 70.1117L73.3945 70.0847C72.8626 69.279 72.4893 68.3792 72.2948 67.4335L72 66Z" fill="white"/>
<path d="M94.5115 48.5482L90.6214 47.85L105 66L104.789 60.3753C104.568 54.5077 100.291 49.5856 94.5115 48.5482Z" fill="#838383"/>
<path d="M119.379 47.85L115.488 48.5482C109.709 49.5856 105.432 54.5077 105.211 60.3753L105 66L119.379 47.85Z" fill="#838383"/>
<path d="M105 66L110.824 65.7843C116.708 65.5664 121.642 61.2695 122.665 55.4711L123.386 51.3857L105 66Z" fill="#838383"/>
<path d="M110.824 66.2157L105 66L123.386 80.6143L122.665 76.5289C121.642 70.7305 116.708 66.4336 110.824 66.2157Z" fill="#838383"/>
<path d="M115.488 83.4518L119.379 84.15L105 66L105.211 71.6247C105.432 77.4923 109.709 82.4144 115.488 83.4518Z" fill="#838383"/>
<path d="M90.6214 84.15L94.5115 83.4518C100.291 82.4144 104.568 77.4923 104.789 71.6247L105 66L90.6214 84.15Z" fill="#838383"/>
<path d="M105 66L99.1756 66.2157C93.2916 66.4336 88.3585 70.7305 87.3352 76.5289L86.6143 80.6143L105 66Z" fill="#838383"/>
<path d="M99.1756 65.7843L105 66L86.6143 51.3857L87.3352 55.4711C88.3585 61.2695 93.2916 65.5664 99.1756 65.7843Z" fill="#838383"/>
</svg>
