<svg width="1065" height="390" viewBox="0 0 1065 390" fill="none" xmlns="http://www.w3.org/2000/svg">
<g clip-path="url(#clip0_106_5)">
<rect width="1065" height="390" fill="#151ECE"/>
<path d="M976.569 140H1008.77C1010.47 140 1012.13 139.447 1013.49 138.425C1014.03 138.018 1014.52 137.541 1014.94 137.008L1049.7 93.0355C1049.94 92.7316 1050.2 92.4517 1050.5 92.1996C1053.06 90.0063 1056.92 90.348 1059.05 92.9563L1060.03 94.1507C1061.13 95.493 1061.73 97.174 1061.73 98.9083V118.113V118.475C1061.73 130.22 1071.14 139.798 1082.89 140H1116.22C1116.37 140 1116.52 139.989 1116.67 139.968C1118.05 139.771 1119.14 138.685 1119.33 137.303C1119.35 137.156 1119.37 137.007 1119.37 136.858V83.0943C1119.37 81.4826 1118.06 80.1761 1116.45 80.1761H1084.35C1079.51 80.1761 1075.59 76.2565 1075.59 71.4214V26.9182C1075.59 25.3065 1074.28 24 1072.67 24H1038.38C1037.92 24 1037.47 24.1856 1037.14 24.5159L1036.92 24.7296L975.489 101.882C974.643 102.944 974.183 104.261 974.183 105.619V137.082V137.614C974.183 138.78 975.026 139.776 976.176 139.968C976.306 139.989 976.437 140 976.569 140Z" fill="white"/>
<path d="M1116.98 256H1084.78C1083.08 256 1081.42 255.447 1080.06 254.425C1079.51 254.018 1079.03 253.541 1078.6 253.008L1043.85 209.035C1043.61 208.732 1043.34 208.452 1043.05 208.2C1040.49 206.006 1036.63 206.348 1034.49 208.956L1033.52 210.151C1032.42 211.493 1031.82 213.174 1031.82 214.908V234.113V234.475C1031.82 246.22 1022.4 255.798 1010.66 256H977.324C977.176 256 977.027 255.989 976.88 255.968C975.498 255.771 974.412 254.685 974.214 253.303C974.193 253.156 974.183 253.007 974.183 252.858V199.094C974.183 197.483 975.489 196.176 977.101 196.176H1009.2C1014.04 196.176 1017.96 192.256 1017.96 187.421V142.918C1017.96 141.307 1019.26 140 1020.87 140H1055.16C1055.63 140 1056.08 140.186 1056.41 140.516L1056.62 140.73L1118.06 217.882C1118.9 218.944 1119.37 220.261 1119.37 221.619V253.082V253.614C1119.37 254.78 1118.52 255.776 1117.37 255.968C1117.24 255.989 1117.11 256 1116.98 256Z" fill="white"/>
<path d="M831.386 24H863.583C865.287 24 866.944 24.5526 868.307 25.5747C868.851 25.9823 869.339 26.4585 869.76 26.9915L904.513 70.9645C904.753 71.2684 905.022 71.5483 905.316 71.8004C907.875 73.9937 911.738 73.652 913.872 71.0437L914.849 69.8493C915.947 68.507 916.547 66.826 916.547 65.0917V45.8868V45.5252C916.547 33.7801 925.961 24.2025 937.704 24H971.041C971.19 24 971.338 24.0106 971.485 24.0316C972.867 24.229 973.953 25.315 974.151 26.6972C974.172 26.8444 974.182 26.9929 974.182 27.1415V80.9057C974.182 82.5174 972.876 83.8239 971.264 83.8239H939.164C934.328 83.8239 930.409 87.7435 930.409 92.5786V137.082C930.409 138.693 929.102 140 927.491 140H893.201C892.734 140 892.286 139.814 891.956 139.484L891.742 139.27L830.306 62.1185C829.461 61.0563 829 59.7387 829 58.3809V26.9182V26.3862C829 25.2197 829.843 24.2242 830.994 24.0325C831.124 24.0109 831.255 24 831.386 24Z" fill="white"/>
<path d="M971.796 140H939.6C937.896 140 936.238 140.553 934.875 141.575C934.332 141.982 933.844 142.459 933.422 142.992L898.669 186.965C898.429 187.268 898.16 187.548 897.866 187.8C895.307 189.994 891.445 189.652 889.311 187.044L888.334 185.849C887.235 184.507 886.635 182.826 886.635 181.092V161.887V161.525C886.635 149.78 877.222 140.202 865.478 140H832.142C831.993 140 831.845 140.011 831.697 140.032C830.315 140.229 829.229 141.315 829.032 142.697C829.011 142.844 829 142.993 829 143.142V196.906C829 198.517 830.307 199.824 831.918 199.824H864.019C868.854 199.824 872.774 203.744 872.774 208.579V253.082C872.774 254.693 874.08 256 875.692 256H909.981C910.448 256 910.896 255.814 911.227 255.484L911.44 255.27L972.876 178.118C973.722 177.056 974.183 175.739 974.183 174.381V142.918V142.386C974.183 141.22 973.339 140.224 972.189 140.032C972.059 140.011 971.928 140 971.796 140Z" fill="white"/>
<path d="M976.569 372H1008.77C1010.47 372 1012.13 371.447 1013.49 370.425C1014.03 370.018 1014.52 369.541 1014.94 369.008L1049.7 325.035C1049.94 324.732 1050.2 324.452 1050.5 324.2C1053.06 322.006 1056.92 322.348 1059.05 324.956L1060.03 326.151C1061.13 327.493 1061.73 329.174 1061.73 330.908V350.113V350.475C1061.73 362.22 1071.14 371.798 1082.89 372H1116.22C1116.37 372 1116.52 371.989 1116.67 371.968C1118.05 371.771 1119.14 370.685 1119.33 369.303C1119.35 369.156 1119.37 369.007 1119.37 368.858V315.094C1119.37 313.483 1118.06 312.176 1116.45 312.176H1084.35C1079.51 312.176 1075.59 308.256 1075.59 303.421V258.918C1075.59 257.307 1074.28 256 1072.67 256H1038.38C1037.92 256 1037.47 256.186 1037.14 256.516L1036.92 256.73L975.489 333.882C974.643 334.944 974.183 336.261 974.183 337.619V369.082V369.614C974.183 370.78 975.026 371.776 976.176 371.968C976.306 371.989 976.437 372 976.569 372Z" fill="white"/>
<path d="M1116.98 488H1084.78C1083.08 488 1081.42 487.447 1080.06 486.425C1079.51 486.018 1079.03 485.541 1078.6 485.008L1043.85 441.035C1043.61 440.732 1043.34 440.452 1043.05 440.2C1040.49 438.006 1036.63 438.348 1034.49 440.956L1033.52 442.151C1032.42 443.493 1031.82 445.174 1031.82 446.908V466.113V466.475C1031.82 478.22 1022.4 487.798 1010.66 488H977.324C977.176 488 977.027 487.989 976.88 487.968C975.498 487.771 974.412 486.685 974.214 485.303C974.193 485.156 974.183 485.007 974.183 484.858V431.094C974.183 429.483 975.489 428.176 977.101 428.176H1009.2C1014.04 428.176 1017.96 424.256 1017.96 419.421V374.918C1017.96 373.307 1019.26 372 1020.87 372H1055.16C1055.63 372 1056.08 372.186 1056.41 372.516L1056.62 372.73L1118.06 449.882C1118.9 450.944 1119.37 452.261 1119.37 453.619V485.082V485.614C1119.37 486.78 1118.52 487.776 1117.37 487.968C1117.24 487.989 1117.11 488 1116.98 488Z" fill="white"/>
<path d="M831.386 256H863.583C865.287 256 866.944 256.553 868.307 257.575C868.851 257.982 869.339 258.459 869.76 258.992L904.513 302.965C904.753 303.268 905.022 303.548 905.316 303.8C907.875 305.994 911.738 305.652 913.872 303.044L914.849 301.849C915.947 300.507 916.547 298.826 916.547 297.092V277.887V277.525C916.547 265.78 925.961 256.202 937.704 256H971.041C971.19 256 971.338 256.011 971.485 256.032C972.867 256.229 973.953 257.315 974.151 258.697C974.172 258.844 974.182 258.993 974.182 259.142V312.906C974.182 314.517 972.876 315.824 971.264 315.824H939.164C934.328 315.824 930.409 319.744 930.409 324.579V369.082C930.409 370.693 929.102 372 927.491 372H893.201C892.734 372 892.286 371.814 891.956 371.484L891.742 371.27L830.306 294.118C829.461 293.056 829 291.739 829 290.381V258.918V258.386C829 257.22 829.843 256.224 830.994 256.032C831.124 256.011 831.255 256 831.386 256Z" fill="white"/>
<path d="M971.796 372H939.6C937.896 372 936.238 372.553 934.875 373.575C934.332 373.982 933.844 374.459 933.422 374.992L898.669 418.965C898.429 419.268 898.16 419.548 897.866 419.8C895.307 421.994 891.445 421.652 889.311 419.044L888.334 417.849C887.235 416.507 886.635 414.826 886.635 413.092V393.887V393.525C886.635 381.78 877.222 372.202 865.478 372H832.142C831.993 372 831.845 372.011 831.697 372.032C830.315 372.229 829.229 373.315 829.032 374.697C829.011 374.844 829 374.993 829 375.142V428.906C829 430.517 830.307 431.824 831.918 431.824H864.019C868.854 431.824 872.774 435.744 872.774 440.579V485.082C872.774 486.693 874.08 488 875.692 488H909.981C910.448 488 910.896 487.814 911.227 487.484L911.44 487.27L972.876 410.118C973.722 409.056 974.183 407.739 974.183 406.381V374.918V374.386C974.183 373.22 973.339 372.224 972.189 372.032C972.059 372.011 971.928 372 971.796 372Z" fill="white"/>
<g filter="url(#filter0_f_106_5)">
<circle cx="1631" cy="555" r="577" fill="#000897" fill-opacity="0.48"/>
</g>
<path d="M518.537 70H498.8C497.755 70 496.739 70.3388 495.904 70.9654C495.571 71.2152 495.271 71.5072 495.013 71.8339L473.709 98.7903C473.562 98.9766 473.397 99.1482 473.216 99.3027C471.648 100.647 469.28 100.438 467.972 98.8388L467.373 98.1066C466.699 97.2838 466.332 96.2533 466.332 95.1902V83.4171V83.1954C466.332 75.9954 460.561 70.1242 453.362 70H432.926C432.835 70 432.744 70.0065 432.653 70.0194C431.806 70.1404 431.14 70.8062 431.019 71.6535C431.006 71.7437 431 71.8347 431 71.9259V104.884C431 105.872 431.801 106.673 432.789 106.673H452.467C455.431 106.673 457.834 109.076 457.834 112.04V139.322C457.834 140.31 458.635 141.111 459.623 141.111H480.643C480.93 141.111 481.204 140.997 481.407 140.794L481.538 140.663L518.694 94.0023C519.539 92.9402 520 91.6226 520 90.2648V71.789V71.4628C520 70.7478 519.483 70.1375 518.778 70.02C518.698 70.0067 518.618 70 518.537 70Z" fill="#E7E8E8"/>
<g filter="url(#filter1_dg_106_5)">
<path d="M432.463 141.111H452.2C453.245 141.111 454.261 140.772 455.096 140.145C455.429 139.895 455.729 139.603 455.987 139.277L477.291 112.32C477.438 112.134 477.603 111.962 477.784 111.808C479.352 110.463 481.72 110.673 483.028 112.272L483.627 113.004C484.301 113.827 484.668 114.857 484.668 115.92V127.693V127.915C484.668 135.115 490.439 140.986 497.638 141.111H518.074C518.165 141.111 518.256 141.104 518.347 141.091C519.194 140.97 519.86 140.304 519.981 139.457C519.994 139.367 520 139.276 520 139.185V106.226C520 105.238 519.199 104.437 518.211 104.437H498.533C495.569 104.437 493.166 102.034 493.166 99.0704V71.7889C493.166 70.8009 492.365 70 491.377 70H470.357C470.07 70 469.796 70.1138 469.593 70.3162L469.462 70.4472L432.306 117.108C431.461 118.17 431 119.488 431 120.846V139.322V139.648C431 140.363 431.517 140.973 432.222 141.091C432.302 141.104 432.382 141.111 432.463 141.111Z" fill="white"/>
</g>
<path d="M544.08 103.584V99.936H559.76V103.584H544.08Z" fill="white"/>
<path d="M564.084 98.4V82.528H568.052V84.256H568.628C568.905 83.7227 569.364 83.264 570.004 82.88C570.644 82.4747 571.486 82.272 572.532 82.272C573.662 82.272 574.569 82.496 575.252 82.944C575.934 83.3707 576.457 83.936 576.82 84.64H577.396C577.758 83.9573 578.27 83.392 578.932 82.944C579.593 82.496 580.532 82.272 581.748 82.272C582.729 82.272 583.614 82.4853 584.404 82.912C585.214 83.3173 585.854 83.9467 586.324 84.8C586.814 85.632 587.06 86.688 587.06 87.968V98.4H583.028V88.256C583.028 87.3813 582.804 86.7307 582.356 86.304C581.908 85.856 581.278 85.632 580.468 85.632C579.55 85.632 578.836 85.9307 578.324 86.528C577.833 87.104 577.588 87.936 577.588 89.024V98.4H573.556V88.256C573.556 87.3813 573.332 86.7307 572.884 86.304C572.436 85.856 571.806 85.632 570.996 85.632C570.078 85.632 569.364 85.9307 568.852 86.528C568.361 87.104 568.116 87.936 568.116 89.024V98.4H564.084Z" fill="white"/>
<path d="M597.194 98.656C595.957 98.656 594.869 98.3787 593.93 97.824C593.013 97.248 592.298 96.4587 591.786 95.456C591.274 94.4533 591.018 93.3013 591.018 92V82.528H595.05V91.68C595.05 92.8747 595.338 93.7707 595.914 94.368C596.512 94.9653 597.354 95.264 598.442 95.264C599.68 95.264 600.64 94.8587 601.322 94.048C602.005 93.216 602.346 92.064 602.346 90.592V82.528H606.378V98.4H602.41V96.32H601.834C601.578 96.8533 601.098 97.376 600.394 97.888C599.69 98.4 598.624 98.656 597.194 98.656Z" fill="white"/>
<path d="M610.097 90.528V90.016C610.097 88.352 610.428 86.9333 611.089 85.76C611.75 84.5653 612.625 83.6587 613.713 83.04C614.822 82.4 616.028 82.08 617.329 82.08C618.78 82.08 619.878 82.336 620.625 82.848C621.372 83.36 621.916 83.8933 622.257 84.448H622.833V82.528H626.801V101.216C626.801 102.304 626.481 103.168 625.841 103.808C625.201 104.469 624.348 104.8 623.281 104.8H612.657V101.28H621.873C622.47 101.28 622.769 100.96 622.769 100.32V96.192H622.193C621.98 96.5333 621.681 96.8853 621.297 97.248C620.913 97.5893 620.401 97.8773 619.761 98.112C619.121 98.3467 618.31 98.464 617.329 98.464C616.028 98.464 614.822 98.1547 613.713 97.536C612.625 96.896 611.75 95.9893 611.089 94.816C610.428 93.6213 610.097 92.192 610.097 90.528ZM618.481 94.944C619.718 94.944 620.753 94.5493 621.585 93.76C622.417 92.9707 622.833 91.8613 622.833 90.432V90.112C622.833 88.6613 622.417 87.552 621.585 86.784C620.774 85.9947 619.74 85.6 618.481 85.6C617.244 85.6 616.209 85.9947 615.377 86.784C614.545 87.552 614.129 88.6613 614.129 90.112V90.432C614.129 91.8613 614.545 92.9707 615.377 93.76C616.209 94.5493 617.244 94.944 618.481 94.944Z" fill="white"/>
<path d="M631.271 98.4V76H635.303V84.48H635.879C636.05 84.1387 636.317 83.7973 636.679 83.456C637.042 83.1147 637.522 82.8373 638.119 82.624C638.738 82.3893 639.517 82.272 640.455 82.272C641.693 82.272 642.77 82.56 643.687 83.136C644.626 83.6907 645.351 84.4693 645.863 85.472C646.375 86.4533 646.631 87.6053 646.631 88.928V98.4H642.599V89.248C642.599 88.0533 642.301 87.1573 641.703 86.56C641.127 85.9627 640.295 85.664 639.207 85.664C637.97 85.664 637.01 86.08 636.327 86.912C635.645 87.7227 635.303 88.864 635.303 90.336V98.4H631.271Z" fill="white"/>
<path d="M650.99 98.4V82.528H654.958V84.32H655.534C655.769 83.68 656.153 83.2107 656.686 82.912C657.241 82.6133 657.881 82.464 658.606 82.464H660.526V86.048H658.542C657.518 86.048 656.675 86.3253 656.014 86.88C655.353 87.4133 655.022 88.2453 655.022 89.376V98.4H650.99Z" fill="white"/>
<path d="M668.23 98.848C667.1 98.848 666.086 98.656 665.19 98.272C664.294 97.8667 663.58 97.2907 663.046 96.544C662.534 95.776 662.278 94.848 662.278 93.76C662.278 92.672 662.534 91.7653 663.046 91.04C663.58 90.2933 664.305 89.7387 665.222 89.376C666.161 88.992 667.228 88.8 668.422 88.8H672.774V87.904C672.774 87.1573 672.54 86.5493 672.07 86.08C671.601 85.5893 670.854 85.344 669.83 85.344C668.828 85.344 668.081 85.5787 667.59 86.048C667.1 86.496 666.78 87.0827 666.63 87.808L662.918 86.56C663.174 85.7493 663.58 85.0133 664.134 84.352C664.71 83.6693 665.468 83.1253 666.406 82.72C667.366 82.2933 668.529 82.08 669.894 82.08C671.985 82.08 673.638 82.6027 674.854 83.648C676.07 84.6933 676.678 86.208 676.678 88.192V94.112C676.678 94.752 676.977 95.072 677.574 95.072H678.854V98.4H676.166C675.377 98.4 674.726 98.208 674.214 97.824C673.702 97.44 673.446 96.928 673.446 96.288V96.256H672.838C672.753 96.512 672.561 96.8533 672.262 97.28C671.964 97.6853 671.494 98.048 670.854 98.368C670.214 98.688 669.34 98.848 668.23 98.848ZM668.934 95.584C670.065 95.584 670.982 95.2747 671.686 94.656C672.412 94.016 672.774 93.1733 672.774 92.128V91.808H668.71C667.964 91.808 667.377 91.968 666.95 92.288C666.524 92.608 666.31 93.056 666.31 93.632C666.31 94.208 666.534 94.6773 666.982 95.04C667.43 95.4027 668.081 95.584 668.934 95.584Z" fill="white"/>
<path d="M681.802 98.4V82.528H685.77V84.256H686.346C686.624 83.7227 687.082 83.264 687.722 82.88C688.362 82.4747 689.205 82.272 690.25 82.272C691.381 82.272 692.288 82.496 692.97 82.944C693.653 83.3707 694.176 83.936 694.538 84.64H695.114C695.477 83.9573 695.989 83.392 696.65 82.944C697.312 82.496 698.25 82.272 699.466 82.272C700.448 82.272 701.333 82.4853 702.122 82.912C702.933 83.3173 703.573 83.9467 704.042 84.8C704.533 85.632 704.778 86.688 704.778 87.968V98.4H700.746V88.256C700.746 87.3813 700.522 86.7307 700.074 86.304C699.626 85.856 698.997 85.632 698.186 85.632C697.269 85.632 696.554 85.9307 696.042 86.528C695.552 87.104 695.306 87.936 695.306 89.024V98.4H691.274V88.256C691.274 87.3813 691.05 86.7307 690.602 86.304C690.154 85.856 689.525 85.632 688.714 85.632C687.797 85.632 687.082 85.9307 686.57 86.528C686.08 87.104 685.834 87.936 685.834 89.024V98.4H681.802Z" fill="white"/>
<path d="M545.744 130.848C545.211 130.848 544.773 130.677 544.432 130.336C544.091 129.995 543.92 129.557 543.92 129.024C543.92 128.491 544.091 128.053 544.432 127.712C544.773 127.371 545.211 127.2 545.744 127.2C546.277 127.2 546.715 127.371 547.056 127.712C547.397 128.053 547.568 128.491 547.568 129.024C547.568 129.557 547.397 129.995 547.056 130.336C546.715 130.677 546.277 130.848 545.744 130.848Z" fill="white"/>
<path d="M557.084 130.848C555.996 130.848 555.004 130.667 554.108 130.304C553.233 129.92 552.54 129.365 552.028 128.64C551.516 127.915 551.26 127.04 551.26 126.016C551.26 124.971 551.516 124.107 552.028 123.424C552.54 122.741 553.233 122.229 554.108 121.888C554.983 121.547 555.953 121.376 557.02 121.376H562.716V120.128C562.716 118.869 562.353 117.888 561.628 117.184C560.903 116.48 559.847 116.128 558.46 116.128C557.095 116.128 556.007 116.469 555.196 117.152C554.407 117.813 553.873 118.709 553.596 119.84L551.74 119.296C551.996 118.379 552.401 117.557 552.956 116.832C553.511 116.085 554.247 115.499 555.164 115.072C556.081 114.624 557.18 114.4 558.46 114.4C560.423 114.4 561.937 114.912 563.004 115.936C564.092 116.96 564.636 118.389 564.636 120.224V127.776C564.636 128.416 564.935 128.736 565.532 128.736H567.036V130.4H564.988C564.327 130.4 563.804 130.208 563.42 129.824C563.036 129.419 562.844 128.875 562.844 128.192V127.968H562.524C562.247 128.437 561.884 128.896 561.436 129.344C561.009 129.792 560.444 130.155 559.74 130.432C559.036 130.709 558.151 130.848 557.084 130.848ZM557.212 129.12C558.855 129.12 560.177 128.629 561.18 127.648C562.204 126.645 562.716 125.237 562.716 123.424V123.04H557.052C555.943 123.04 555.015 123.285 554.268 123.776C553.543 124.245 553.18 124.981 553.18 125.984C553.18 126.987 553.553 127.765 554.3 128.32C555.068 128.853 556.039 129.12 557.212 129.12Z" fill="white"/>
<path d="M570.691 136.8V114.848H572.547V117.696H572.931C573.379 116.843 574.072 116.085 575.011 115.424C575.971 114.741 577.304 114.4 579.011 114.4C580.398 114.4 581.656 114.731 582.787 115.392C583.918 116.032 584.814 116.949 585.475 118.144C586.158 119.339 586.499 120.768 586.499 122.432V122.816C586.499 124.459 586.168 125.888 585.507 127.104C584.846 128.299 583.95 129.227 582.819 129.888C581.688 130.528 580.419 130.848 579.011 130.848C577.88 130.848 576.91 130.699 576.099 130.4C575.31 130.08 574.659 129.675 574.147 129.184C573.656 128.693 573.272 128.192 572.995 127.68H572.611V136.8H570.691ZM578.563 129.12C580.334 129.12 581.763 128.555 582.851 127.424C583.96 126.293 584.515 124.736 584.515 122.752V122.496C584.515 120.512 583.96 118.955 582.851 117.824C581.763 116.693 580.334 116.128 578.563 116.128C576.814 116.128 575.384 116.693 574.275 117.824C573.166 118.955 572.611 120.512 572.611 122.496V122.752C572.611 124.736 573.166 126.293 574.275 127.424C575.384 128.555 576.814 129.12 578.563 129.12Z" fill="white"/>
<path d="M591.378 136.8V114.848H593.234V117.696H593.618C594.066 116.843 594.76 116.085 595.698 115.424C596.658 114.741 597.992 114.4 599.698 114.4C601.085 114.4 602.344 114.731 603.474 115.392C604.605 116.032 605.501 116.949 606.162 118.144C606.845 119.339 607.186 120.768 607.186 122.432V122.816C607.186 124.459 606.856 125.888 606.194 127.104C605.533 128.299 604.637 129.227 603.506 129.888C602.376 130.528 601.106 130.848 599.698 130.848C598.568 130.848 597.597 130.699 596.786 130.4C595.997 130.08 595.346 129.675 594.834 129.184C594.344 128.693 593.96 128.192 593.682 127.68H593.298V136.8H591.378ZM599.25 129.12C601.021 129.12 602.45 128.555 603.538 127.424C604.648 126.293 605.202 124.736 605.202 122.752V122.496C605.202 120.512 604.648 118.955 603.538 117.824C602.45 116.693 601.021 116.128 599.25 116.128C597.501 116.128 596.072 116.693 594.962 117.824C593.853 118.955 593.298 120.512 593.298 122.496V122.752C593.298 124.736 593.853 126.293 594.962 127.424C596.072 128.555 597.501 129.12 599.25 129.12Z" fill="white"/>
<path d="M618.242 130.848C616.365 130.848 614.754 130.4 613.41 129.504C612.087 128.608 611.277 127.125 610.978 125.056L612.866 124.704C613.037 125.835 613.378 126.731 613.89 127.392C614.423 128.032 615.063 128.491 615.81 128.768C616.578 129.045 617.389 129.184 618.242 129.184C619.522 129.184 620.546 128.928 621.314 128.416C622.103 127.883 622.498 127.157 622.498 126.24C622.498 125.301 622.125 124.651 621.378 124.288C620.653 123.925 619.682 123.637 618.466 123.424L616.994 123.168C616.013 122.997 615.127 122.741 614.338 122.4C613.549 122.037 612.919 121.557 612.45 120.96C612.002 120.363 611.778 119.616 611.778 118.72C611.778 117.376 612.301 116.32 613.346 115.552C614.413 114.784 615.821 114.4 617.57 114.4C619.341 114.4 620.759 114.805 621.826 115.616C622.914 116.405 623.597 117.557 623.874 119.072L622.082 119.456C621.869 118.219 621.357 117.344 620.546 116.832C619.757 116.32 618.765 116.064 617.57 116.064C616.397 116.064 615.458 116.288 614.754 116.736C614.05 117.184 613.698 117.845 613.698 118.72C613.698 119.573 614.018 120.203 614.658 120.608C615.298 120.992 616.173 121.28 617.282 121.472L618.754 121.728C619.821 121.899 620.781 122.155 621.634 122.496C622.487 122.816 623.159 123.275 623.65 123.872C624.162 124.469 624.418 125.259 624.418 126.24C624.418 127.712 623.863 128.853 622.754 129.664C621.645 130.453 620.141 130.848 618.242 130.848Z" fill="white"/>
<path d="M71.4558 140.772H91.0991C92.1384 140.772 93.1498 140.434 93.9813 139.811C94.3128 139.562 94.6108 139.272 94.8678 138.946L116.07 112.119C116.217 111.933 116.381 111.762 116.561 111.609C118.122 110.27 120.478 110.479 121.78 112.07L122.376 112.799C123.046 113.618 123.412 114.643 123.412 115.701V127.418V127.639C123.412 134.805 129.156 140.648 136.32 140.772H156.659C156.75 140.772 156.84 140.765 156.93 140.752C157.773 140.632 158.436 139.969 158.556 139.126C158.569 139.036 158.576 138.946 158.576 138.855V106.053C158.576 105.07 157.779 104.273 156.795 104.273H137.211C134.261 104.273 131.869 101.882 131.869 98.9318V71.7804C131.869 70.7971 131.072 70 130.089 70H109.169C108.884 70 108.611 70.1132 108.409 70.3147L108.279 70.4451L71.3063 116.876C70.4605 117.938 70 119.256 70 120.613V138.991V139.316C70 140.027 70.5145 140.635 71.2165 140.752C71.2956 140.765 71.3756 140.772 71.4558 140.772Z" fill="white"/>
<path d="M190.423 74.4512H196.865L206.457 100.058H200.301L198.333 94.3356H188.955L186.987 100.058H180.831L190.423 74.4512ZM196.543 89.2572L194.682 83.8927L193.823 80.7455H193.465L192.606 83.8927L190.745 89.2572H196.543Z" fill="white"/>
<path d="M209.472 74.4512H215.056V84.3218H224.862V74.4512H230.446V100.058H224.862V89.6148H215.056V100.058H209.472V74.4512Z" fill="white"/>
<path d="M235.617 74.4512H241.128L248.43 86.9683H248.788L256.089 74.4512H261.601V100.058H256.089V88.7207L256.447 84.4291H256.089L250.255 94.6217H246.962L241.128 84.4291H240.77L241.128 88.7207V100.058H235.617V74.4512Z" fill="white"/>
<path d="M272.343 79.7441V84.6079H282.507V89.9009H272.343V94.7647H283.653V100.058H266.759V74.4512H283.653V79.7441H272.343Z" fill="white"/>
<path d="M288.08 74.4512H297.135C299.187 74.4512 301.037 74.7611 302.683 75.381C304.329 76.0009 305.725 76.8712 306.87 77.9917C308.016 79.1123 308.887 80.4594 309.483 82.033C310.104 83.6066 310.414 85.3471 310.414 87.2544C310.414 89.1618 310.104 90.9023 309.483 92.4759C308.887 94.0495 308.016 95.3965 306.87 96.5171C305.725 97.6377 304.329 98.5079 302.683 99.1278C301.037 99.7477 299.187 100.058 297.135 100.058H288.08V74.4512ZM296.849 94.7647C298.233 94.7647 299.426 94.5859 300.428 94.2283C301.43 93.8468 302.253 93.3223 302.898 92.6547C303.566 91.9871 304.055 91.2003 304.365 90.2943C304.675 89.3645 304.83 88.3512 304.83 87.2544C304.83 86.1577 304.675 85.1563 304.365 84.2503C304.055 83.3205 303.566 82.5218 302.898 81.8542C302.253 81.1866 301.43 80.674 300.428 80.3163C299.426 79.9349 298.233 79.7441 296.849 79.7441H293.664V94.7647H296.849Z" fill="white"/>
<path d="M183.724 110.587H189.236L196.537 123.104H196.895L204.197 110.587H209.708V136.194H204.197V124.857L204.554 120.565H204.197L198.363 130.757H195.07L189.236 120.565H188.878L189.236 124.857V136.194H183.724V110.587Z" fill="white"/>
<path d="M224.494 136.766C222.943 136.766 221.536 136.527 220.271 136.05C219.006 135.55 217.933 134.823 217.05 133.869C216.167 132.915 215.487 131.759 215.01 130.4C214.532 129.017 214.294 127.443 214.294 125.679V110.587H219.877V126.037C219.877 127.61 220.271 128.91 221.058 129.935C221.846 130.96 222.991 131.473 224.494 131.473C225.998 131.473 227.143 130.96 227.93 129.935C228.718 128.91 229.111 127.61 229.111 126.037V110.587H234.695V125.679C234.695 127.3 234.456 128.791 233.979 130.15C233.502 131.509 232.822 132.677 231.939 133.654C231.056 134.632 229.982 135.395 228.718 135.943C227.453 136.492 226.045 136.766 224.494 136.766Z" fill="white"/>
<path d="M251.504 121.96H264.138C264.21 122.246 264.269 122.615 264.317 123.068C264.389 123.521 264.424 123.951 264.424 124.356C264.424 126.168 264.162 127.777 263.637 129.184C263.112 130.591 262.349 131.83 261.346 132.903C260.201 134.119 258.817 135.073 257.195 135.764C255.572 136.432 253.723 136.766 251.647 136.766C249.786 136.766 248.02 136.432 246.35 135.764C244.704 135.097 243.26 134.179 242.019 133.011C240.778 131.818 239.8 130.412 239.084 128.791C238.368 127.145 238.011 125.345 238.011 123.39C238.011 121.435 238.368 119.647 239.084 118.026C239.8 116.381 240.778 114.974 242.019 113.806C243.26 112.614 244.704 111.684 246.35 111.016C248.02 110.349 249.786 110.015 251.647 110.015C253.818 110.015 255.703 110.384 257.302 111.123C258.925 111.863 260.344 112.876 261.561 114.163L257.767 117.883C256.932 117.048 256.037 116.416 255.083 115.987C254.152 115.534 252.983 115.308 251.575 115.308C250.478 115.308 249.44 115.51 248.462 115.916C247.507 116.297 246.66 116.846 245.92 117.561C245.205 118.252 244.632 119.099 244.202 120.1C243.797 121.078 243.594 122.174 243.594 123.39C243.594 124.606 243.797 125.715 244.202 126.716C244.632 127.694 245.217 128.54 245.956 129.255C246.696 129.947 247.555 130.495 248.533 130.901C249.511 131.282 250.561 131.473 251.683 131.473C253.878 131.473 255.632 130.889 256.944 129.72C257.35 129.363 257.72 128.922 258.054 128.397C258.412 127.849 258.698 127.253 258.913 126.609H251.504V121.96Z" fill="white"/>
<path d="M268.448 110.587H274.032V120.458H283.839V110.587H289.422V136.194H283.839V125.751H274.032V136.194H268.448V110.587Z" fill="white"/>
<path d="M294.593 110.587H304.256C305.64 110.587 306.881 110.802 307.979 111.231C309.076 111.636 309.995 112.208 310.735 112.947C311.498 113.686 312.071 114.569 312.453 115.594C312.858 116.595 313.061 117.692 313.061 118.884C313.061 119.719 312.918 120.493 312.632 121.209C312.369 121.924 311.999 122.592 311.522 123.211C311.069 123.807 310.532 124.344 309.912 124.821C309.291 125.274 308.623 125.655 307.907 125.965V126.287L314.6 135.836V136.194H308.229L301.751 126.967H300.176V136.194H294.593V110.587ZM304.256 121.817C305.259 121.817 306.046 121.531 306.619 120.958C307.191 120.362 307.478 119.635 307.478 118.777C307.478 117.918 307.203 117.203 306.655 116.631C306.13 116.035 305.33 115.737 304.256 115.737H300.176V121.817H304.256Z" fill="white"/>
<path d="M324.966 110.587H331.409L341.001 136.194H334.845L332.876 130.471H323.499L321.53 136.194H315.374L324.966 110.587ZM331.087 125.393L329.225 120.028L328.366 116.881H328.008L327.149 120.028L325.288 125.393H331.087Z" fill="white"/>
<path d="M344.016 110.587H349.527L356.829 123.104H357.187L364.488 110.587H370V136.194H364.488V124.857L364.846 120.565H364.488L358.654 130.757H355.361L349.527 120.565H349.169L349.527 124.857V136.194H344.016V110.587Z" fill="white"/>
<path d="M406.636 97L408 98.3636L394.364 112L393 110.636L406.636 97Z" fill="#CDCFFF"/>
<path d="M393 98.3637L394.364 97.0001L408 110.636L406.636 112L393 98.3637Z" fill="#CDCFFF"/>
<path d="M74.736 218V212.048H71.28V208.592H74.736V205.008H71.28V201.552H74.736V195.6H78.384V201.552H81.968V195.6H85.616V201.552H89.072V205.008H85.616V208.592H89.072V212.048H85.616V218H81.968V212.048H78.384V218H74.736ZM78.384 208.592H81.968V205.008H78.384V208.592ZM92.5838 218V202.128H96.5518V203.856H97.1278C97.4051 203.323 97.8638 202.864 98.5038 202.48C99.1438 202.075 99.9864 201.872 101.032 201.872C102.162 201.872 103.069 202.096 103.752 202.544C104.434 202.971 104.957 203.536 105.32 204.24H105.896C106.258 203.557 106.77 202.992 107.432 202.544C108.093 202.096 109.032 201.872 110.248 201.872C111.229 201.872 112.114 202.085 112.904 202.512C113.714 202.917 114.354 203.547 114.824 204.4C115.314 205.232 115.56 206.288 115.56 207.568V218H111.528V207.856C111.528 206.981 111.304 206.331 110.856 205.904C110.408 205.456 109.778 205.232 108.968 205.232C108.05 205.232 107.336 205.531 106.824 206.128C106.333 206.704 106.088 207.536 106.088 208.624V218H102.056V207.856C102.056 206.981 101.832 206.331 101.384 205.904C100.936 205.456 100.306 205.232 99.4958 205.232C98.5784 205.232 97.8638 205.531 97.3518 206.128C96.8611 206.704 96.6158 207.536 96.6158 208.624V218H92.5838ZM124.824 218.448C123.694 218.448 122.68 218.256 121.784 217.872C120.888 217.467 120.174 216.891 119.64 216.144C119.128 215.376 118.872 214.448 118.872 213.36C118.872 212.272 119.128 211.365 119.64 210.64C120.174 209.893 120.899 209.339 121.816 208.976C122.755 208.592 123.822 208.4 125.016 208.4H129.368V207.504C129.368 206.757 129.134 206.149 128.664 205.68C128.195 205.189 127.448 204.944 126.424 204.944C125.422 204.944 124.675 205.179 124.184 205.648C123.694 206.096 123.374 206.683 123.224 207.408L119.512 206.16C119.768 205.349 120.174 204.613 120.728 203.952C121.304 203.269 122.062 202.725 123 202.32C123.96 201.893 125.123 201.68 126.488 201.68C128.579 201.68 130.232 202.203 131.448 203.248C132.664 204.293 133.272 205.808 133.272 207.792V213.712C133.272 214.352 133.571 214.672 134.168 214.672H135.448V218H132.76C131.971 218 131.32 217.808 130.808 217.424C130.296 217.04 130.04 216.528 130.04 215.888V215.856H129.432C129.347 216.112 129.155 216.453 128.856 216.88C128.558 217.285 128.088 217.648 127.448 217.968C126.808 218.288 125.934 218.448 124.824 218.448ZM125.528 215.184C126.659 215.184 127.576 214.875 128.28 214.256C129.006 213.616 129.368 212.773 129.368 211.728V211.408H125.304C124.558 211.408 123.971 211.568 123.544 211.888C123.118 212.208 122.904 212.656 122.904 213.232C122.904 213.808 123.128 214.277 123.576 214.64C124.024 215.003 124.675 215.184 125.528 215.184ZM138.396 218V195.6H142.428V207.984H143.004L148.252 202.128H153.5L146.172 209.808L153.756 218H148.572L143.004 211.696H142.428V218H138.396ZM162.722 218.448C161.143 218.448 159.746 218.117 158.53 217.456C157.335 216.773 156.397 215.824 155.714 214.608C155.053 213.371 154.722 211.92 154.722 210.256V209.872C154.722 208.208 155.053 206.768 155.714 205.552C156.375 204.315 157.303 203.365 158.498 202.704C159.693 202.021 161.079 201.68 162.658 201.68C164.215 201.68 165.57 202.032 166.722 202.736C167.874 203.419 168.77 204.379 169.41 205.616C170.05 206.832 170.37 208.251 170.37 209.872V211.248H158.818C158.861 212.336 159.266 213.221 160.034 213.904C160.802 214.587 161.741 214.928 162.85 214.928C163.981 214.928 164.813 214.683 165.346 214.192C165.879 213.701 166.285 213.157 166.562 212.56L169.858 214.288C169.559 214.843 169.122 215.451 168.546 216.112C167.991 216.752 167.245 217.307 166.306 217.776C165.367 218.224 164.173 218.448 162.722 218.448ZM158.85 208.24H166.274C166.189 207.323 165.815 206.587 165.154 206.032C164.514 205.477 163.671 205.2 162.626 205.2C161.538 205.2 160.674 205.477 160.034 206.032C159.394 206.587 158.999 207.323 158.85 208.24ZM173.799 223.184V219.536H189.479V223.184H173.799ZM193.803 218V202.128H197.835V218H193.803ZM195.819 200.272C195.093 200.272 194.475 200.037 193.963 199.568C193.472 199.099 193.227 198.48 193.227 197.712C193.227 196.944 193.472 196.325 193.963 195.856C194.475 195.387 195.093 195.152 195.819 195.152C196.565 195.152 197.184 195.387 197.675 195.856C198.165 196.325 198.411 196.944 198.411 197.712C198.411 198.48 198.165 199.099 197.675 199.568C197.184 200.037 196.565 200.272 195.819 200.272ZM208.383 218C207.337 218 206.484 217.68 205.823 217.04C205.183 216.379 204.863 215.504 204.863 214.416V205.456H200.895V202.128H204.863V197.2H208.895V202.128H213.247V205.456H208.895V213.712C208.895 214.352 209.193 214.672 209.791 214.672H212.863V218H208.383ZM216.736 223.184V219.536H232.416V223.184H216.736ZM246.276 218.448C244.847 218.448 243.748 218.203 242.98 217.712C242.212 217.221 241.647 216.677 241.284 216.08H240.708V218H236.74V195.6H240.772V203.952H241.348C241.583 203.568 241.892 203.205 242.276 202.864C242.681 202.523 243.204 202.245 243.844 202.032C244.505 201.797 245.316 201.68 246.276 201.68C247.556 201.68 248.74 202 249.828 202.64C250.916 203.259 251.791 204.176 252.452 205.392C253.113 206.608 253.444 208.08 253.444 209.808V210.32C253.444 212.048 253.113 213.52 252.452 214.736C251.791 215.952 250.916 216.88 249.828 217.52C248.74 218.139 247.556 218.448 246.276 218.448ZM245.06 214.928C246.297 214.928 247.332 214.533 248.164 213.744C248.996 212.933 249.412 211.76 249.412 210.224V209.904C249.412 208.368 248.996 207.205 248.164 206.416C247.353 205.605 246.319 205.2 245.06 205.2C243.823 205.2 242.788 205.605 241.956 206.416C241.124 207.205 240.708 208.368 240.708 209.904V210.224C240.708 211.76 241.124 212.933 241.956 213.744C242.788 214.533 243.823 214.928 245.06 214.928ZM257.146 218V195.6H261.178V218H257.146ZM271.694 218.256C270.457 218.256 269.369 217.979 268.43 217.424C267.513 216.848 266.798 216.059 266.286 215.056C265.774 214.053 265.518 212.901 265.518 211.6V202.128H269.55V211.28C269.55 212.475 269.838 213.371 270.414 213.968C271.012 214.565 271.854 214.864 272.942 214.864C274.18 214.864 275.14 214.459 275.822 213.648C276.505 212.816 276.846 211.664 276.846 210.192V202.128H280.878V218H276.91V215.92H276.334C276.078 216.453 275.598 216.976 274.894 217.488C274.19 218 273.124 218.256 271.694 218.256ZM292.597 218.448C291.018 218.448 289.621 218.117 288.405 217.456C287.21 216.773 286.272 215.824 285.589 214.608C284.928 213.371 284.597 211.92 284.597 210.256V209.872C284.597 208.208 284.928 206.768 285.589 205.552C286.25 204.315 287.178 203.365 288.373 202.704C289.568 202.021 290.954 201.68 292.533 201.68C294.09 201.68 295.445 202.032 296.597 202.736C297.749 203.419 298.645 204.379 299.285 205.616C299.925 206.832 300.245 208.251 300.245 209.872V211.248H288.693C288.736 212.336 289.141 213.221 289.909 213.904C290.677 214.587 291.616 214.928 292.725 214.928C293.856 214.928 294.688 214.683 295.221 214.192C295.754 213.701 296.16 213.157 296.437 212.56L299.733 214.288C299.434 214.843 298.997 215.451 298.421 216.112C297.866 216.752 297.12 217.307 296.181 217.776C295.242 218.224 294.048 218.448 292.597 218.448ZM288.725 208.24H296.149C296.064 207.323 295.69 206.587 295.029 206.032C294.389 205.477 293.546 205.2 292.501 205.2C291.413 205.2 290.549 205.477 289.909 206.032C289.269 206.587 288.874 207.323 288.725 208.24ZM303.834 218V202.128H307.866V218H303.834ZM305.85 200.272C305.124 200.272 304.506 200.037 303.994 199.568C303.503 199.099 303.258 198.48 303.258 197.712C303.258 196.944 303.503 196.325 303.994 195.856C304.506 195.387 305.124 195.152 305.85 195.152C306.596 195.152 307.215 195.387 307.706 195.856C308.196 196.325 308.442 196.944 308.442 197.712C308.442 198.48 308.196 199.099 307.706 199.568C307.215 200.037 306.596 200.272 305.85 200.272ZM318.926 218.448C316.856 218.448 315.16 218 313.838 217.104C312.515 216.208 311.715 214.928 311.438 213.264L315.15 212.304C315.299 213.051 315.544 213.637 315.886 214.064C316.248 214.491 316.686 214.8 317.198 214.992C317.731 215.163 318.307 215.248 318.926 215.248C319.864 215.248 320.558 215.088 321.006 214.768C321.454 214.427 321.678 214.011 321.678 213.52C321.678 213.029 321.464 212.656 321.038 212.4C320.611 212.123 319.928 211.899 318.99 211.728L318.094 211.568C316.984 211.355 315.971 211.067 315.054 210.704C314.136 210.32 313.4 209.797 312.846 209.136C312.291 208.475 312.014 207.621 312.014 206.576C312.014 204.997 312.59 203.792 313.742 202.96C314.894 202.107 316.408 201.68 318.286 201.68C320.056 201.68 321.528 202.075 322.702 202.864C323.875 203.653 324.643 204.688 325.006 205.968L321.262 207.12C321.091 206.309 320.739 205.733 320.206 205.392C319.694 205.051 319.054 204.88 318.286 204.88C317.518 204.88 316.931 205.019 316.526 205.296C316.12 205.552 315.918 205.915 315.918 206.384C315.918 206.896 316.131 207.28 316.558 207.536C316.984 207.771 317.56 207.952 318.286 208.08L319.182 208.24C320.376 208.453 321.454 208.741 322.414 209.104C323.395 209.445 324.163 209.947 324.718 210.608C325.294 211.248 325.582 212.123 325.582 213.232C325.582 214.896 324.974 216.187 323.758 217.104C322.563 218 320.952 218.448 318.926 218.448ZM329.115 218V195.6H333.147V204.08H333.723C333.894 203.739 334.16 203.397 334.523 203.056C334.886 202.715 335.366 202.437 335.963 202.224C336.582 201.989 337.36 201.872 338.299 201.872C339.536 201.872 340.614 202.16 341.531 202.736C342.47 203.291 343.195 204.069 343.707 205.072C344.219 206.053 344.475 207.205 344.475 208.528V218H340.443V208.848C340.443 207.653 340.144 206.757 339.547 206.16C338.971 205.563 338.139 205.264 337.051 205.264C335.814 205.264 334.854 205.68 334.171 206.512C333.488 207.323 333.147 208.464 333.147 209.936V218H329.115ZM77.04 259L71.216 243.448H73.264L78.384 257.528H78.768L83.888 243.448H85.936L80.112 259H77.04ZM95.6483 259.448C93.7709 259.448 92.1603 259 90.8163 258.104C89.4936 257.208 88.6829 255.725 88.3843 253.656L90.2723 253.304C90.4429 254.435 90.7843 255.331 91.2963 255.992C91.8296 256.632 92.4696 257.091 93.2163 257.368C93.9843 257.645 94.7949 257.784 95.6483 257.784C96.9283 257.784 97.9523 257.528 98.7203 257.016C99.5096 256.483 99.9043 255.757 99.9043 254.84C99.9043 253.901 99.5309 253.251 98.7843 252.888C98.0589 252.525 97.0883 252.237 95.8723 252.024L94.4003 251.768C93.4189 251.597 92.5336 251.341 91.7443 251C90.9549 250.637 90.3256 250.157 89.8563 249.56C89.4083 248.963 89.1843 248.216 89.1843 247.32C89.1843 245.976 89.7069 244.92 90.7523 244.152C91.8189 243.384 93.2269 243 94.9763 243C96.7469 243 98.1656 243.405 99.2323 244.216C100.32 245.005 101.003 246.157 101.28 247.672L99.4883 248.056C99.2749 246.819 98.7629 245.944 97.9523 245.432C97.1629 244.92 96.1709 244.664 94.9763 244.664C93.8029 244.664 92.8643 244.888 92.1603 245.336C91.4563 245.784 91.1043 246.445 91.1043 247.32C91.1043 248.173 91.4243 248.803 92.0643 249.208C92.7043 249.592 93.5789 249.88 94.6883 250.072L96.1603 250.328C97.2269 250.499 98.1869 250.755 99.0403 251.096C99.8936 251.416 100.566 251.875 101.056 252.472C101.568 253.069 101.824 253.859 101.824 254.84C101.824 256.312 101.27 257.453 100.16 258.264C99.0509 259.053 97.5469 259.448 95.6483 259.448ZM105.611 259V256.376L116.075 245.496V245.176H105.931V243.448H118.027V246.072L107.531 256.952V257.272H118.283V259H105.611ZM123.097 259V236.6H125.017V259H123.097ZM129.444 259L135.94 251.096L129.668 243.448H132.068L137.156 249.816H137.54L142.628 243.448H145.028L138.756 251.096L145.252 259H142.82L137.54 252.376H137.156L131.876 259H129.444ZM150.588 259.448C150.054 259.448 149.617 259.277 149.276 258.936C148.934 258.595 148.764 258.157 148.764 257.624C148.764 257.091 148.934 256.653 149.276 256.312C149.617 255.971 150.054 255.8 150.588 255.8C151.121 255.8 151.558 255.971 151.9 256.312C152.241 256.653 152.412 257.091 152.412 257.624C152.412 258.157 152.241 258.595 151.9 258.936C151.558 259.277 151.121 259.448 150.588 259.448ZM164.014 259.448C162.499 259.448 161.144 259.128 159.95 258.488C158.776 257.827 157.848 256.888 157.166 255.672C156.483 254.456 156.142 253.027 156.142 251.384V251.064C156.142 249.4 156.483 247.971 157.166 246.776C157.848 245.56 158.776 244.632 159.95 243.992C161.144 243.331 162.499 243 164.014 243C165.507 243 166.766 243.288 167.79 243.864C168.835 244.419 169.646 245.155 170.222 246.072C170.819 246.968 171.192 247.917 171.342 248.92L169.454 249.304C169.347 248.472 169.08 247.715 168.654 247.032C168.227 246.328 167.63 245.773 166.862 245.368C166.094 244.941 165.144 244.728 164.014 244.728C162.883 244.728 161.87 244.995 160.974 245.528C160.078 246.04 159.363 246.776 158.83 247.736C158.318 248.675 158.062 249.795 158.062 251.096V251.352C158.062 252.653 158.318 253.784 158.83 254.744C159.363 255.683 160.078 256.419 160.974 256.952C161.87 257.464 162.883 257.72 164.014 257.72C165.72 257.72 167.022 257.283 167.918 256.408C168.814 255.512 169.368 254.424 169.582 253.144L171.47 253.528C171.278 254.531 170.872 255.491 170.254 256.408C169.656 257.304 168.835 258.04 167.79 258.616C166.766 259.171 165.507 259.448 164.014 259.448ZM183.295 259.448C181.716 259.448 180.33 259.117 179.135 258.456C177.962 257.773 177.044 256.835 176.383 255.64C175.743 254.424 175.423 253.016 175.423 251.416V251.032C175.423 249.432 175.743 248.035 176.383 246.84C177.044 245.624 177.962 244.685 179.135 244.024C180.33 243.341 181.716 243 183.295 243C184.874 243 186.25 243.341 187.423 244.024C188.618 244.685 189.535 245.624 190.175 246.84C190.836 248.035 191.167 249.432 191.167 251.032V251.416C191.167 253.016 190.836 254.424 190.175 255.64C189.535 256.835 188.618 257.773 187.423 258.456C186.25 259.117 184.874 259.448 183.295 259.448ZM183.295 257.72C185.13 257.72 186.58 257.144 187.647 255.992C188.714 254.819 189.247 253.272 189.247 251.352V251.096C189.247 249.176 188.714 247.64 187.647 246.488C186.58 245.315 185.13 244.728 183.295 244.728C181.482 244.728 180.031 245.315 178.943 246.488C177.876 247.64 177.343 249.176 177.343 251.096V251.352C177.343 253.272 177.876 254.819 178.943 255.992C180.031 257.144 181.482 257.72 183.295 257.72ZM196.035 259V243.448H197.891V245.496H198.275C198.595 244.92 199.107 244.387 199.811 243.896C200.515 243.384 201.517 243.128 202.819 243.128C204.077 243.128 205.091 243.416 205.859 243.992C206.648 244.568 207.213 245.261 207.555 246.072H207.939C208.301 245.261 208.867 244.568 209.635 243.992C210.403 243.416 211.48 243.128 212.867 243.128C213.933 243.128 214.861 243.352 215.651 243.8C216.44 244.227 217.059 244.835 217.507 245.624C217.955 246.392 218.179 247.299 218.179 248.344V259H216.259V248.536C216.259 247.427 215.917 246.541 215.235 245.88C214.573 245.197 213.635 244.856 212.419 244.856C211.181 244.856 210.147 245.261 209.315 246.072C208.483 246.861 208.067 248.024 208.067 249.56V259H206.147V248.536C206.147 247.427 205.805 246.541 205.123 245.88C204.461 245.197 203.523 244.856 202.307 244.856C201.069 244.856 200.035 245.261 199.203 246.072C198.371 246.861 197.955 248.024 197.955 249.56V259H196.035ZM230.41 251.128V250.616C230.41 248.952 230.74 247.533 231.402 246.36C232.063 245.165 232.938 244.259 234.026 243.64C235.135 243 236.34 242.68 237.642 242.68C239.092 242.68 240.191 242.936 240.938 243.448C241.684 243.96 242.228 244.493 242.57 245.048H243.146V243.128H247.114V261.816C247.114 262.904 246.794 263.768 246.154 264.408C245.514 265.069 244.66 265.4 243.594 265.4H232.97V261.88H242.186C242.783 261.88 243.082 261.56 243.082 260.92V256.792H242.506C242.292 257.133 241.994 257.485 241.61 257.848C241.226 258.189 240.714 258.477 240.074 258.712C239.434 258.947 238.623 259.064 237.642 259.064C236.34 259.064 235.135 258.755 234.026 258.136C232.938 257.496 232.063 256.589 231.402 255.416C230.74 254.221 230.41 252.792 230.41 251.128ZM238.794 255.544C240.031 255.544 241.066 255.149 241.898 254.36C242.73 253.571 243.146 252.461 243.146 251.032V250.712C243.146 249.261 242.73 248.152 241.898 247.384C241.087 246.595 240.052 246.2 238.794 246.2C237.556 246.2 236.522 246.595 235.69 247.384C234.858 248.152 234.442 249.261 234.442 250.712V251.032C234.442 252.461 234.858 253.571 235.69 254.36C236.522 255.149 237.556 255.544 238.794 255.544ZM259.136 259.448C257.557 259.448 256.138 259.128 254.88 258.488C253.621 257.848 252.629 256.92 251.904 255.704C251.178 254.488 250.816 253.027 250.816 251.32V250.808C250.816 249.101 251.178 247.64 251.904 246.424C252.629 245.208 253.621 244.28 254.88 243.64C256.138 243 257.557 242.68 259.136 242.68C260.714 242.68 262.133 243 263.392 243.64C264.65 244.28 265.642 245.208 266.368 246.424C267.093 247.64 267.456 249.101 267.456 250.808V251.32C267.456 253.027 267.093 254.488 266.368 255.704C265.642 256.92 264.65 257.848 263.392 258.488C262.133 259.128 260.714 259.448 259.136 259.448ZM259.136 255.864C260.373 255.864 261.397 255.469 262.208 254.68C263.018 253.869 263.424 252.717 263.424 251.224V250.904C263.424 249.411 263.018 248.269 262.208 247.48C261.418 246.669 260.394 246.264 259.136 246.264C257.898 246.264 256.874 246.669 256.064 247.48C255.253 248.269 254.848 249.411 254.848 250.904V251.224C254.848 252.717 255.253 253.869 256.064 254.68C256.874 255.469 257.898 255.864 259.136 255.864ZM276.758 259C275.712 259 274.859 258.68 274.198 258.04C273.558 257.379 273.238 256.504 273.238 255.416V246.456H269.27V243.128H273.238V238.2H277.27V243.128H281.622V246.456H277.27V254.712C277.27 255.352 277.568 255.672 278.166 255.672H281.238V259H276.758ZM298.324 259.448C297.194 259.448 296.18 259.256 295.284 258.872C294.388 258.467 293.674 257.891 293.14 257.144C292.628 256.376 292.372 255.448 292.372 254.36C292.372 253.272 292.628 252.365 293.14 251.64C293.674 250.893 294.399 250.339 295.316 249.976C296.255 249.592 297.322 249.4 298.516 249.4H302.868V248.504C302.868 247.757 302.634 247.149 302.164 246.68C301.695 246.189 300.948 245.944 299.924 245.944C298.922 245.944 298.175 246.179 297.684 246.648C297.194 247.096 296.874 247.683 296.724 248.408L293.012 247.16C293.268 246.349 293.674 245.613 294.228 244.952C294.804 244.269 295.562 243.725 296.5 243.32C297.46 242.893 298.623 242.68 299.988 242.68C302.079 242.68 303.732 243.203 304.948 244.248C306.164 245.293 306.772 246.808 306.772 248.792V254.712C306.772 255.352 307.071 255.672 307.668 255.672H308.948V259H306.26C305.471 259 304.82 258.808 304.308 258.424C303.796 258.04 303.54 257.528 303.54 256.888V256.856H302.932C302.847 257.112 302.655 257.453 302.356 257.88C302.058 258.285 301.588 258.648 300.948 258.968C300.308 259.288 299.434 259.448 298.324 259.448ZM299.028 256.184C300.159 256.184 301.076 255.875 301.78 255.256C302.506 254.616 302.868 253.773 302.868 252.728V252.408H298.804C298.058 252.408 297.471 252.568 297.044 252.888C296.618 253.208 296.404 253.656 296.404 254.232C296.404 254.808 296.628 255.277 297.076 255.64C297.524 256.003 298.175 256.184 299.028 256.184ZM320.021 259V243.128H323.989V245.208H324.565C324.821 244.653 325.301 244.131 326.005 243.64C326.709 243.128 327.776 242.872 329.205 242.872C330.443 242.872 331.52 243.16 332.437 243.736C333.376 244.291 334.101 245.069 334.613 246.072C335.125 247.053 335.381 248.205 335.381 249.528V259H331.349V249.848C331.349 248.653 331.051 247.757 330.453 247.16C329.877 246.563 329.045 246.264 327.957 246.264C326.72 246.264 325.76 246.68 325.077 247.512C324.395 248.323 324.053 249.464 324.053 250.936V259H320.021ZM346.972 259.448C345.393 259.448 343.996 259.117 342.78 258.456C341.585 257.773 340.647 256.824 339.964 255.608C339.303 254.371 338.972 252.92 338.972 251.256V250.872C338.972 249.208 339.303 247.768 339.964 246.552C340.625 245.315 341.553 244.365 342.748 243.704C343.943 243.021 345.329 242.68 346.908 242.68C348.465 242.68 349.82 243.032 350.972 243.736C352.124 244.419 353.02 245.379 353.66 246.616C354.3 247.832 354.62 249.251 354.62 250.872V252.248H343.068C343.111 253.336 343.516 254.221 344.284 254.904C345.052 255.587 345.991 255.928 347.1 255.928C348.231 255.928 349.063 255.683 349.596 255.192C350.129 254.701 350.535 254.157 350.812 253.56L354.108 255.288C353.809 255.843 353.372 256.451 352.796 257.112C352.241 257.752 351.495 258.307 350.556 258.776C349.617 259.224 348.423 259.448 346.972 259.448ZM343.1 249.24H350.524C350.439 248.323 350.065 247.587 349.404 247.032C348.764 246.477 347.921 246.2 346.876 246.2C345.788 246.2 344.924 246.477 344.284 247.032C343.644 247.587 343.249 248.323 343.1 249.24ZM359.426 259L357.186 243.128H361.186L362.594 256.28H363.17L365.218 243.128H371.682L373.73 256.28H374.306L375.714 243.128H379.714L377.474 259H370.786L368.738 245.848H368.162L366.114 259H359.426ZM391.365 259V236.6H395.397V259H391.365ZM404.793 259.448C403.662 259.448 402.649 259.256 401.753 258.872C400.857 258.467 400.142 257.891 399.609 257.144C399.097 256.376 398.841 255.448 398.841 254.36C398.841 253.272 399.097 252.365 399.609 251.64C400.142 250.893 400.868 250.339 401.785 249.976C402.724 249.592 403.79 249.4 404.985 249.4H409.337V248.504C409.337 247.757 409.102 247.149 408.633 246.68C408.164 246.189 407.417 245.944 406.393 245.944C405.39 245.944 404.644 246.179 404.153 246.648C403.662 247.096 403.342 247.683 403.193 248.408L399.481 247.16C399.737 246.349 400.142 245.613 400.697 244.952C401.273 244.269 402.03 243.725 402.969 243.32C403.929 242.893 405.092 242.68 406.457 242.68C408.548 242.68 410.201 243.203 411.417 244.248C412.633 245.293 413.241 246.808 413.241 248.792V254.712C413.241 255.352 413.54 255.672 414.137 255.672H415.417V259H412.729C411.94 259 411.289 258.808 410.777 258.424C410.265 258.04 410.009 257.528 410.009 256.888V256.856H409.401C409.316 257.112 409.124 257.453 408.825 257.88C408.526 258.285 408.057 258.648 407.417 258.968C406.777 259.288 405.902 259.448 404.793 259.448ZM405.497 256.184C406.628 256.184 407.545 255.875 408.249 255.256C408.974 254.616 409.337 253.773 409.337 252.728V252.408H405.273C404.526 252.408 403.94 252.568 403.513 252.888C403.086 253.208 402.873 253.656 402.873 254.232C402.873 254.808 403.097 255.277 403.545 255.64C403.993 256.003 404.644 256.184 405.497 256.184ZM419.656 265.4V261.88H428.296C428.893 261.88 429.192 261.56 429.192 260.92V256.92H428.616C428.445 257.283 428.178 257.645 427.816 258.008C427.453 258.371 426.962 258.669 426.344 258.904C425.725 259.139 424.936 259.256 423.976 259.256C422.738 259.256 421.65 258.979 420.712 258.424C419.794 257.848 419.08 257.059 418.568 256.056C418.056 255.053 417.799 253.901 417.799 252.6V243.128H421.832V252.28C421.832 253.475 422.12 254.371 422.696 254.968C423.293 255.565 424.136 255.864 425.224 255.864C426.461 255.864 427.421 255.459 428.104 254.648C428.786 253.816 429.128 252.664 429.128 251.192V243.128H433.16V261.816C433.16 262.904 432.84 263.768 432.2 264.408C431.56 265.069 430.706 265.4 429.64 265.4H419.656ZM445.198 259.448C443.62 259.448 442.201 259.128 440.942 258.488C439.684 257.848 438.692 256.92 437.966 255.704C437.241 254.488 436.878 253.027 436.878 251.32V250.808C436.878 249.101 437.241 247.64 437.966 246.424C438.692 245.208 439.684 244.28 440.942 243.64C442.201 243 443.62 242.68 445.198 242.68C446.777 242.68 448.196 243 449.454 243.64C450.713 244.28 451.705 245.208 452.43 246.424C453.156 247.64 453.518 249.101 453.518 250.808V251.32C453.518 253.027 453.156 254.488 452.43 255.704C451.705 256.92 450.713 257.848 449.454 258.488C448.196 259.128 446.777 259.448 445.198 259.448ZM445.198 255.864C446.436 255.864 447.46 255.469 448.27 254.68C449.081 253.869 449.486 252.717 449.486 251.224V250.904C449.486 249.411 449.081 248.269 448.27 247.48C447.481 246.669 446.457 246.264 445.198 246.264C443.961 246.264 442.937 246.669 442.126 247.48C441.316 248.269 440.91 249.411 440.91 250.904V251.224C440.91 252.717 441.316 253.869 442.126 254.68C442.937 255.469 443.961 255.864 445.198 255.864ZM463.288 259.256C462.051 259.256 460.963 258.979 460.024 258.424C459.107 257.848 458.392 257.059 457.88 256.056C457.368 255.053 457.112 253.901 457.112 252.6V243.128H461.144V252.28C461.144 253.475 461.432 254.371 462.008 254.968C462.605 255.565 463.448 255.864 464.536 255.864C465.773 255.864 466.733 255.459 467.416 254.648C468.099 253.816 468.44 252.664 468.44 251.192V243.128H472.472V259H468.504V256.92H467.928C467.672 257.453 467.192 257.976 466.488 258.488C465.784 259 464.717 259.256 463.288 259.256ZM483.039 259C481.993 259 481.14 258.68 480.479 258.04C479.839 257.379 479.519 256.504 479.519 255.416V246.456H475.551V243.128H479.519V238.2H483.551V243.128H487.903V246.456H483.551V254.712C483.551 255.352 483.849 255.672 484.447 255.672H487.519V259H483.039ZM505.726 259.256C504.488 259.256 503.4 258.979 502.462 258.424C501.544 257.848 500.83 257.059 500.318 256.056C499.806 255.053 499.549 253.901 499.549 252.6V243.128H503.582V252.28C503.582 253.475 503.87 254.371 504.446 254.968C505.043 255.565 505.886 255.864 506.974 255.864C508.211 255.864 509.171 255.459 509.854 254.648C510.536 253.816 510.878 252.664 510.878 251.192V243.128H514.91V259H510.942V256.92H510.366C510.11 257.453 509.63 257.976 508.926 258.488C508.222 259 507.155 259.256 505.726 259.256ZM519.396 265.4V243.128H523.364V245.048H523.94C524.303 244.429 524.868 243.885 525.636 243.416C526.404 242.925 527.503 242.68 528.932 242.68C530.212 242.68 531.396 243 532.484 243.64C533.572 244.259 534.447 245.176 535.108 246.392C535.77 247.608 536.1 249.08 536.1 250.808V251.32C536.1 253.048 535.77 254.52 535.108 255.736C534.447 256.952 533.572 257.88 532.484 258.52C531.396 259.139 530.212 259.448 528.932 259.448C527.972 259.448 527.162 259.331 526.5 259.096C525.86 258.883 525.338 258.605 524.932 258.264C524.548 257.901 524.239 257.539 524.004 257.176H523.428V265.4H519.396ZM527.716 255.928C528.975 255.928 530.01 255.533 530.82 254.744C531.652 253.933 532.068 252.76 532.068 251.224V250.904C532.068 249.368 531.652 248.205 530.82 247.416C529.988 246.605 528.954 246.2 527.716 246.2C526.479 246.2 525.444 246.605 524.612 247.416C523.78 248.205 523.364 249.368 523.364 250.904V251.224C523.364 252.76 523.78 253.933 524.612 254.744C525.444 255.533 526.479 255.928 527.716 255.928ZM546.203 259.448C544.944 259.448 543.76 259.139 542.651 258.52C541.563 257.88 540.688 256.952 540.027 255.736C539.365 254.52 539.035 253.048 539.035 251.32V250.808C539.035 249.08 539.365 247.608 540.027 246.392C540.688 245.176 541.563 244.259 542.651 243.64C543.739 243 544.923 242.68 546.203 242.68C547.163 242.68 547.963 242.797 548.603 243.032C549.264 243.245 549.797 243.523 550.203 243.864C550.608 244.205 550.917 244.568 551.131 244.952H551.707V236.6H555.739V259H551.771V257.08H551.195C550.832 257.677 550.267 258.221 549.499 258.712C548.752 259.203 547.653 259.448 546.203 259.448ZM547.419 255.928C548.656 255.928 549.691 255.533 550.523 254.744C551.355 253.933 551.771 252.76 551.771 251.224V250.904C551.771 249.368 551.355 248.205 550.523 247.416C549.712 246.605 548.677 246.2 547.419 246.2C546.181 246.2 545.147 246.605 544.315 247.416C543.483 248.205 543.067 249.368 543.067 250.904V251.224C543.067 252.76 543.483 253.933 544.315 254.744C545.147 255.533 546.181 255.928 547.419 255.928ZM565.137 259.448C564.006 259.448 562.993 259.256 562.097 258.872C561.201 258.467 560.486 257.891 559.953 257.144C559.441 256.376 559.185 255.448 559.185 254.36C559.185 253.272 559.441 252.365 559.953 251.64C560.486 250.893 561.211 250.339 562.129 249.976C563.067 249.592 564.134 249.4 565.329 249.4H569.681V248.504C569.681 247.757 569.446 247.149 568.977 246.68C568.507 246.189 567.761 245.944 566.737 245.944C565.734 245.944 564.987 246.179 564.497 246.648C564.006 247.096 563.686 247.683 563.537 248.408L559.825 247.16C560.081 246.349 560.486 245.613 561.041 244.952C561.617 244.269 562.374 243.725 563.313 243.32C564.273 242.893 565.435 242.68 566.801 242.68C568.891 242.68 570.545 243.203 571.761 244.248C572.977 245.293 573.585 246.808 573.585 248.792V254.712C573.585 255.352 573.883 255.672 574.481 255.672H575.761V259H573.073C572.283 259 571.633 258.808 571.121 258.424C570.609 258.04 570.353 257.528 570.353 256.888V256.856H569.745C569.659 257.112 569.467 257.453 569.169 257.88C568.87 258.285 568.401 258.648 567.761 258.968C567.121 259.288 566.246 259.448 565.137 259.448ZM565.841 256.184C566.971 256.184 567.889 255.875 568.593 255.256C569.318 254.616 569.681 253.773 569.681 252.728V252.408H565.617C564.87 252.408 564.283 252.568 563.857 252.888C563.43 253.208 563.217 253.656 563.217 254.232C563.217 254.808 563.441 255.277 563.889 255.64C564.337 256.003 564.987 256.184 565.841 256.184ZM583.633 259C582.587 259 581.734 258.68 581.073 258.04C580.433 257.379 580.113 256.504 580.113 255.416V246.456H576.145V243.128H580.113V238.2H584.145V243.128H588.497V246.456H584.145V254.712C584.145 255.352 584.443 255.672 585.041 255.672H588.113V259H583.633ZM598.816 259.448C597.237 259.448 595.84 259.117 594.624 258.456C593.429 257.773 592.49 256.824 591.808 255.608C591.146 254.371 590.816 252.92 590.816 251.256V250.872C590.816 249.208 591.146 247.768 591.808 246.552C592.469 245.315 593.397 244.365 594.592 243.704C595.786 243.021 597.173 242.68 598.752 242.68C600.309 242.68 601.664 243.032 602.816 243.736C603.968 244.419 604.864 245.379 605.504 246.616C606.144 247.832 606.464 249.251 606.464 250.872V252.248H594.912C594.954 253.336 595.36 254.221 596.128 254.904C596.896 255.587 597.834 255.928 598.944 255.928C600.074 255.928 600.906 255.683 601.44 255.192C601.973 254.701 602.378 254.157 602.656 253.56L605.952 255.288C605.653 255.843 605.216 256.451 604.64 257.112C604.085 257.752 603.338 258.307 602.4 258.776C601.461 259.224 600.266 259.448 598.816 259.448ZM594.944 249.24H602.368C602.282 248.323 601.909 247.587 601.248 247.032C600.608 246.477 599.765 246.2 598.72 246.2C597.632 246.2 596.768 246.477 596.128 247.032C595.488 247.587 595.093 248.323 594.944 249.24ZM610.533 251.64V236.6H614.629V251.64H610.533ZM612.613 259.448C611.738 259.448 611.002 259.171 610.405 258.616C609.829 258.04 609.541 257.304 609.541 256.408C609.541 255.512 609.829 254.787 610.405 254.232C611.002 253.656 611.738 253.368 612.613 253.368C613.466 253.368 614.181 253.656 614.757 254.232C615.333 254.787 615.621 255.512 615.621 256.408C615.621 257.304 615.333 258.04 614.757 258.616C614.181 259.171 613.466 259.448 612.613 259.448Z" fill="white"/>
<path d="M70.768 291.496V290.76H72.176L73.264 290.872L73.344 290.712L72.48 290.024L71.488 289.032L72 288.52L72.992 289.512L73.68 290.376L73.84 290.296L73.728 289.208V287.8H74.464V289.208L74.352 290.296L74.512 290.376L75.2 289.512L76.192 288.52L76.704 289.032L75.712 290.024L74.848 290.712L74.928 290.872L76.016 290.76H77.424V291.496H76.016L74.928 291.384L74.848 291.544L75.712 292.232L76.704 293.224L76.192 293.736L75.2 292.744L74.512 291.88L74.352 291.96L74.464 293.048V294.456H73.728V293.048L73.84 291.96L73.68 291.88L72.992 292.744L72 293.736L71.488 293.224L72.48 292.232L73.344 291.544L73.264 291.384L72.176 291.496H70.768ZM82.4115 299C81.9955 299 81.6808 298.893 81.4675 298.68C81.2648 298.467 81.1635 298.168 81.1635 297.784V292.088H78.6675V291.224H81.1635V288.312H82.1235V291.224H84.8435V292.088H82.1235V297.656C82.1235 297.976 82.2835 298.136 82.6035 298.136H84.4275V299H82.4115ZM86.9861 299V287.8H87.9461V292.584H88.1381C88.2661 292.328 88.4421 292.088 88.6661 291.864C88.9008 291.629 89.1995 291.443 89.5621 291.304C89.9355 291.155 90.3995 291.08 90.9541 291.08C91.5195 291.08 92.0368 291.197 92.5061 291.432C92.9755 291.667 93.3488 292.019 93.6261 292.488C93.9141 292.957 94.0581 293.549 94.0581 294.264V299H93.0981V294.328C93.0981 293.475 92.8848 292.867 92.4581 292.504C92.0315 292.131 91.4608 291.944 90.7461 291.944C89.9461 291.944 89.2795 292.205 88.7461 292.728C88.2128 293.251 87.9461 294.045 87.9461 295.112V299H86.9861ZM96.783 299V291.224H97.743V299H96.783ZM97.263 289.88C97.0283 289.88 96.831 289.8 96.671 289.64C96.511 289.48 96.431 289.283 96.431 289.048C96.431 288.803 96.511 288.605 96.671 288.456C96.831 288.296 97.0283 288.216 97.263 288.216C97.5083 288.216 97.7057 288.296 97.855 288.456C98.015 288.605 98.095 288.803 98.095 289.048C98.095 289.283 98.015 289.48 97.855 289.64C97.7057 289.8 97.5083 289.88 97.263 289.88ZM103.652 299.224C102.714 299.224 101.908 299 101.236 298.552C100.575 298.104 100.17 297.363 100.02 296.328L100.964 296.152C101.05 296.717 101.22 297.165 101.476 297.496C101.743 297.816 102.063 298.045 102.436 298.184C102.82 298.323 103.226 298.392 103.652 298.392C104.292 298.392 104.804 298.264 105.188 298.008C105.583 297.741 105.78 297.379 105.78 296.92C105.78 296.451 105.594 296.125 105.22 295.944C104.858 295.763 104.372 295.619 103.764 295.512L103.028 295.384C102.538 295.299 102.095 295.171 101.7 295C101.306 294.819 100.991 294.579 100.756 294.28C100.532 293.981 100.42 293.608 100.42 293.16C100.42 292.488 100.682 291.96 101.204 291.576C101.738 291.192 102.442 291 103.316 291C104.202 291 104.911 291.203 105.444 291.608C105.988 292.003 106.33 292.579 106.468 293.336L105.572 293.528C105.466 292.909 105.21 292.472 104.804 292.216C104.41 291.96 103.914 291.832 103.316 291.832C102.73 291.832 102.26 291.944 101.908 292.168C101.556 292.392 101.38 292.723 101.38 293.16C101.38 293.587 101.54 293.901 101.86 294.104C102.18 294.296 102.618 294.44 103.172 294.536L103.908 294.664C104.442 294.749 104.922 294.877 105.348 295.048C105.775 295.208 106.111 295.437 106.356 295.736C106.612 296.035 106.74 296.429 106.74 296.92C106.74 297.656 106.463 298.227 105.908 298.632C105.354 299.027 104.602 299.224 103.652 299.224ZM113.142 299V291.224H114.102V299H113.142ZM113.622 289.88C113.388 289.88 113.19 289.8 113.03 289.64C112.87 289.48 112.79 289.283 112.79 289.048C112.79 288.803 112.87 288.605 113.03 288.456C113.19 288.296 113.388 288.216 113.622 288.216C113.868 288.216 114.065 288.296 114.214 288.456C114.374 288.605 114.454 288.803 114.454 289.048C114.454 289.283 114.374 289.48 114.214 289.64C114.065 289.8 113.868 289.88 113.622 289.88ZM120.012 299.224C119.073 299.224 118.268 299 117.596 298.552C116.934 298.104 116.529 297.363 116.38 296.328L117.324 296.152C117.409 296.717 117.58 297.165 117.836 297.496C118.102 297.816 118.422 298.045 118.796 298.184C119.18 298.323 119.585 298.392 120.012 298.392C120.652 298.392 121.164 298.264 121.548 298.008C121.942 297.741 122.14 297.379 122.14 296.92C122.14 296.451 121.953 296.125 121.58 295.944C121.217 295.763 120.732 295.619 120.124 295.512L119.388 295.384C118.897 295.299 118.454 295.171 118.06 295C117.665 294.819 117.35 294.579 117.116 294.28C116.892 293.981 116.78 293.608 116.78 293.16C116.78 292.488 117.041 291.96 117.564 291.576C118.097 291.192 118.801 291 119.676 291C120.561 291 121.27 291.203 121.804 291.608C122.348 292.003 122.689 292.579 122.828 293.336L121.932 293.528C121.825 292.909 121.569 292.472 121.164 292.216C120.769 291.96 120.273 291.832 119.676 291.832C119.089 291.832 118.62 291.944 118.268 292.168C117.916 292.392 117.74 292.723 117.74 293.16C117.74 293.587 117.9 293.901 118.22 294.104C118.54 294.296 118.977 294.44 119.532 294.536L120.268 294.664C120.801 294.749 121.281 294.877 121.708 295.048C122.134 295.208 122.47 295.437 122.716 295.736C122.972 296.035 123.1 296.429 123.1 296.92C123.1 297.656 122.822 298.227 122.268 298.632C121.713 299.027 120.961 299.224 120.012 299.224ZM131.886 299.224C131.342 299.224 130.846 299.133 130.398 298.952C129.96 298.76 129.614 298.483 129.358 298.12C129.102 297.757 128.974 297.32 128.974 296.808C128.974 296.285 129.102 295.853 129.358 295.512C129.614 295.171 129.96 294.915 130.398 294.744C130.835 294.573 131.32 294.488 131.854 294.488H134.702V293.864C134.702 293.235 134.52 292.744 134.158 292.392C133.795 292.04 133.267 291.864 132.574 291.864C131.891 291.864 131.347 292.035 130.942 292.376C130.547 292.707 130.28 293.155 130.142 293.72L129.214 293.448C129.342 292.989 129.544 292.579 129.822 292.216C130.099 291.843 130.467 291.549 130.926 291.336C131.384 291.112 131.934 291 132.574 291C133.555 291 134.312 291.256 134.846 291.768C135.39 292.28 135.662 292.995 135.662 293.912V297.688C135.662 298.008 135.811 298.168 136.11 298.168H136.862V299H135.838C135.507 299 135.246 298.904 135.054 298.712C134.862 298.509 134.766 298.237 134.766 297.896V297.784H134.606C134.467 298.019 134.286 298.248 134.062 298.472C133.848 298.696 133.566 298.877 133.214 299.016C132.862 299.155 132.419 299.224 131.886 299.224ZM131.95 298.36C132.771 298.36 133.432 298.115 133.934 297.624C134.446 297.123 134.702 296.419 134.702 295.512V295.32H131.87C131.315 295.32 130.851 295.443 130.478 295.688C130.115 295.923 129.934 296.291 129.934 296.792C129.934 297.293 130.12 297.683 130.494 297.96C130.878 298.227 131.363 298.36 131.95 298.36ZM142.814 302.2V291.224H143.742V292.648H143.934C144.158 292.221 144.505 291.843 144.974 291.512C145.454 291.171 146.121 291 146.974 291C147.668 291 148.297 291.165 148.862 291.496C149.428 291.816 149.876 292.275 150.206 292.872C150.548 293.469 150.718 294.184 150.718 295.016V295.208C150.718 296.029 150.553 296.744 150.222 297.352C149.892 297.949 149.444 298.413 148.878 298.744C148.313 299.064 147.678 299.224 146.974 299.224C146.409 299.224 145.924 299.149 145.518 299C145.124 298.84 144.798 298.637 144.542 298.392C144.297 298.147 144.105 297.896 143.966 297.64H143.774V302.2H142.814ZM146.75 298.36C147.636 298.36 148.35 298.077 148.894 297.512C149.449 296.947 149.726 296.168 149.726 295.176V295.048C149.726 294.056 149.449 293.277 148.894 292.712C148.35 292.147 147.636 291.864 146.75 291.864C145.876 291.864 145.161 292.147 144.606 292.712C144.052 293.277 143.774 294.056 143.774 295.048V295.176C143.774 296.168 144.052 296.947 144.606 297.512C145.161 298.077 145.876 298.36 146.75 298.36ZM153.158 299V291.224H154.086V292.2H154.278C154.427 291.848 154.646 291.592 154.934 291.432C155.233 291.272 155.643 291.192 156.166 291.192H157.078V292.088H156.054C155.467 292.088 154.998 292.253 154.646 292.584C154.294 292.915 154.118 293.432 154.118 294.136V299H153.158ZM162.367 299.224C161.567 299.224 160.868 299.059 160.271 298.728C159.684 298.387 159.226 297.912 158.895 297.304C158.564 296.696 158.399 295.997 158.399 295.208V295.016C158.399 294.216 158.564 293.517 158.895 292.92C159.226 292.312 159.679 291.843 160.255 291.512C160.842 291.171 161.508 291 162.255 291C162.98 291 163.62 291.155 164.175 291.464C164.74 291.763 165.183 292.2 165.503 292.776C165.823 293.341 165.983 294.019 165.983 294.808V295.32H159.359C159.391 296.291 159.684 297.043 160.239 297.576C160.804 298.099 161.514 298.36 162.367 298.36C163.092 298.36 163.652 298.195 164.047 297.864C164.452 297.533 164.762 297.128 164.975 296.648L165.839 297.032C165.679 297.384 165.455 297.731 165.167 298.072C164.89 298.403 164.527 298.68 164.079 298.904C163.631 299.117 163.06 299.224 162.367 299.224ZM159.375 294.488H165.007C164.964 293.645 164.692 293 164.191 292.552C163.69 292.093 163.044 291.864 162.255 291.864C161.476 291.864 160.831 292.093 160.319 292.552C159.807 293 159.492 293.645 159.375 294.488ZM170.083 299L167.171 291.224H168.195L170.755 298.264H170.947L173.507 291.224H174.531L171.619 299H170.083ZM176.549 299V291.224H177.509V299H176.549ZM177.029 289.88C176.794 289.88 176.597 289.8 176.437 289.64C176.277 289.48 176.197 289.283 176.197 289.048C176.197 288.803 176.277 288.605 176.437 288.456C176.597 288.296 176.794 288.216 177.029 288.216C177.274 288.216 177.471 288.296 177.621 288.456C177.781 288.605 177.861 288.803 177.861 289.048C177.861 289.283 177.781 289.48 177.621 289.64C177.471 289.8 177.274 289.88 177.029 289.88ZM183.914 299.224C183.114 299.224 182.415 299.059 181.818 298.728C181.231 298.387 180.773 297.912 180.442 297.304C180.111 296.696 179.946 295.997 179.946 295.208V295.016C179.946 294.216 180.111 293.517 180.442 292.92C180.773 292.312 181.226 291.843 181.802 291.512C182.389 291.171 183.055 291 183.802 291C184.527 291 185.167 291.155 185.722 291.464C186.287 291.763 186.73 292.2 187.05 292.776C187.37 293.341 187.53 294.019 187.53 294.808V295.32H180.906C180.938 296.291 181.231 297.043 181.786 297.576C182.351 298.099 183.061 298.36 183.914 298.36C184.639 298.36 185.199 298.195 185.594 297.864C185.999 297.533 186.309 297.128 186.522 296.648L187.386 297.032C187.226 297.384 187.002 297.731 186.714 298.072C186.437 298.403 186.074 298.68 185.626 298.904C185.178 299.117 184.607 299.224 183.914 299.224ZM180.922 294.488H186.554C186.511 293.645 186.239 293 185.738 292.552C185.237 292.093 184.591 291.864 183.802 291.864C183.023 291.864 182.378 292.093 181.866 292.552C181.354 293 181.039 293.645 180.922 294.488ZM190.969 299L189.209 291.224H190.201L191.737 298.36H191.929L193.929 291.224H195.561L197.561 298.36H197.753L199.289 291.224H200.281L198.521 299H196.841L194.841 291.864H194.649L192.649 299H190.969ZM208.848 299L205.936 291.224H206.96L209.52 298.264H209.712L212.272 291.224H213.296L210.384 299H208.848ZM218.523 299.224C217.723 299.224 217.025 299.059 216.427 298.728C215.841 298.387 215.382 297.912 215.051 297.304C214.721 296.696 214.555 295.997 214.555 295.208V295.016C214.555 294.216 214.721 293.517 215.051 292.92C215.382 292.312 215.835 291.843 216.411 291.512C216.998 291.171 217.665 291 218.411 291C219.137 291 219.777 291.155 220.331 291.464C220.897 291.763 221.339 292.2 221.659 292.776C221.979 293.341 222.139 294.019 222.139 294.808V295.32H215.515C215.547 296.291 215.841 297.043 216.395 297.576C216.961 298.099 217.67 298.36 218.523 298.36C219.249 298.36 219.809 298.195 220.203 297.864C220.609 297.533 220.918 297.128 221.131 296.648L221.995 297.032C221.835 297.384 221.611 297.731 221.323 298.072C221.046 298.403 220.683 298.68 220.235 298.904C219.787 299.117 219.217 299.224 218.523 299.224ZM215.531 294.488H221.163C221.121 293.645 220.849 293 220.347 292.552C219.846 292.093 219.201 291.864 218.411 291.864C217.633 291.864 216.987 292.093 216.475 292.552C215.963 293 215.649 293.645 215.531 294.488ZM224.502 299V291.224H225.43V292.2H225.622C225.771 291.848 225.99 291.592 226.278 291.432C226.576 291.272 226.987 291.192 227.51 291.192H228.422V292.088H227.398C226.811 292.088 226.342 292.253 225.99 292.584C225.638 292.915 225.462 293.432 225.462 294.136V299H224.502ZM233.355 299.224C232.417 299.224 231.611 299 230.939 298.552C230.278 298.104 229.873 297.363 229.723 296.328L230.667 296.152C230.753 296.717 230.923 297.165 231.179 297.496C231.446 297.816 231.766 298.045 232.139 298.184C232.523 298.323 232.929 298.392 233.355 298.392C233.995 298.392 234.507 298.264 234.891 298.008C235.286 297.741 235.483 297.379 235.483 296.92C235.483 296.451 235.297 296.125 234.923 295.944C234.561 295.763 234.075 295.619 233.467 295.512L232.731 295.384C232.241 295.299 231.798 295.171 231.403 295C231.009 294.819 230.694 294.579 230.459 294.28C230.235 293.981 230.123 293.608 230.123 293.16C230.123 292.488 230.385 291.96 230.907 291.576C231.441 291.192 232.145 291 233.019 291C233.905 291 234.614 291.203 235.147 291.608C235.691 292.003 236.033 292.579 236.171 293.336L235.275 293.528C235.169 292.909 234.913 292.472 234.507 292.216C234.113 291.96 233.617 291.832 233.019 291.832C232.433 291.832 231.963 291.944 231.611 292.168C231.259 292.392 231.083 292.723 231.083 293.16C231.083 293.587 231.243 293.901 231.563 294.104C231.883 294.296 232.321 294.44 232.875 294.536L233.611 294.664C234.145 294.749 234.625 294.877 235.051 295.048C235.478 295.208 235.814 295.437 236.059 295.736C236.315 296.035 236.443 296.429 236.443 296.92C236.443 297.656 236.166 298.227 235.611 298.632C235.057 299.027 234.305 299.224 233.355 299.224ZM238.721 299V291.224H239.681V299H238.721ZM239.201 289.88C238.966 289.88 238.769 289.8 238.609 289.64C238.448 289.48 238.368 289.283 238.368 289.048C238.368 288.803 238.448 288.605 238.609 288.456C238.769 288.296 238.966 288.216 239.201 288.216C239.446 288.216 239.643 288.296 239.793 288.456C239.953 288.605 240.033 288.803 240.033 289.048C240.033 289.283 239.953 289.48 239.793 289.64C239.643 289.8 239.446 289.88 239.201 289.88ZM246.054 299.224C245.264 299.224 244.571 299.059 243.974 298.728C243.387 298.387 242.928 297.917 242.598 297.32C242.278 296.712 242.118 296.008 242.118 295.208V295.016C242.118 294.216 242.278 293.517 242.598 292.92C242.928 292.312 243.387 291.843 243.974 291.512C244.571 291.171 245.264 291 246.054 291C246.843 291 247.531 291.171 248.118 291.512C248.715 291.843 249.174 292.312 249.494 292.92C249.824 293.517 249.99 294.216 249.99 295.016V295.208C249.99 296.008 249.824 296.712 249.494 297.32C249.174 297.917 248.715 298.387 248.118 298.728C247.531 299.059 246.843 299.224 246.054 299.224ZM246.054 298.36C246.971 298.36 247.696 298.072 248.23 297.496C248.763 296.909 249.03 296.136 249.03 295.176V295.048C249.03 294.088 248.763 293.32 248.23 292.744C247.696 292.157 246.971 291.864 246.054 291.864C245.147 291.864 244.422 292.157 243.878 292.744C243.344 293.32 243.078 294.088 243.078 295.048V295.176C243.078 296.136 243.344 296.909 243.878 297.496C244.422 298.072 245.147 298.36 246.054 298.36ZM252.424 299V291.224H253.352V292.664H253.544C253.736 292.248 254.05 291.88 254.488 291.56C254.925 291.229 255.56 291.064 256.392 291.064C256.957 291.064 257.474 291.181 257.944 291.416C258.413 291.651 258.786 292.008 259.064 292.488C259.352 292.957 259.496 293.549 259.496 294.264V299H258.536V294.328C258.536 293.475 258.322 292.861 257.896 292.488C257.469 292.115 256.898 291.928 256.184 291.928C255.384 291.928 254.717 292.195 254.184 292.728C253.65 293.251 253.384 294.045 253.384 295.112V299H252.424ZM270.714 302.68C269.743 302.68 268.9 302.509 268.186 302.168C267.482 301.837 266.932 301.299 266.538 300.552C266.154 299.816 265.962 298.851 265.962 297.656V292.184C265.962 290.979 266.154 290.008 266.538 289.272C266.932 288.536 267.482 288.003 268.186 287.672C268.9 287.331 269.743 287.16 270.714 287.16V287.992C269.391 288.013 268.42 288.376 267.802 289.08C267.194 289.773 266.89 290.835 266.89 292.264V297.576C266.89 298.995 267.194 300.056 267.802 300.76C268.42 301.464 269.391 301.827 270.714 301.848V302.68ZM272.283 299V291.224H273.211V292.2H273.403C273.552 291.848 273.771 291.592 274.059 291.432C274.358 291.272 274.768 291.192 275.291 291.192H276.203V292.088H275.179C274.592 292.088 274.123 292.253 273.771 292.584C273.419 292.915 273.243 293.432 273.243 294.136V299H272.283ZM281.492 299.224C280.692 299.224 279.993 299.059 279.396 298.728C278.809 298.387 278.351 297.912 278.02 297.304C277.689 296.696 277.524 295.997 277.524 295.208V295.016C277.524 294.216 277.689 293.517 278.02 292.92C278.351 292.312 278.804 291.843 279.38 291.512C279.967 291.171 280.633 291 281.38 291C282.105 291 282.745 291.155 283.3 291.464C283.865 291.763 284.308 292.2 284.628 292.776C284.948 293.341 285.108 294.019 285.108 294.808V295.32H278.484C278.516 296.291 278.809 297.043 279.364 297.576C279.929 298.099 280.639 298.36 281.492 298.36C282.217 298.36 282.777 298.195 283.172 297.864C283.577 297.533 283.887 297.128 284.1 296.648L284.964 297.032C284.804 297.384 284.58 297.731 284.292 298.072C284.015 298.403 283.652 298.68 283.204 298.904C282.756 299.117 282.185 299.224 281.492 299.224ZM278.5 294.488H284.132C284.089 293.645 283.817 293 283.316 292.552C282.815 292.093 282.169 291.864 281.38 291.864C280.601 291.864 279.956 292.093 279.444 292.552C278.932 293 278.617 293.645 278.5 294.488ZM287.471 299V287.8H288.431V299H287.471ZM294.836 299.224C294.036 299.224 293.337 299.059 292.74 298.728C292.153 298.387 291.694 297.912 291.364 297.304C291.033 296.696 290.868 295.997 290.868 295.208V295.016C290.868 294.216 291.033 293.517 291.364 292.92C291.694 292.312 292.148 291.843 292.724 291.512C293.31 291.171 293.977 291 294.724 291C295.449 291 296.089 291.155 296.644 291.464C297.209 291.763 297.652 292.2 297.972 292.776C298.292 293.341 298.452 294.019 298.452 294.808V295.32H291.828C291.86 296.291 292.153 297.043 292.708 297.576C293.273 298.099 293.982 298.36 294.836 298.36C295.561 298.36 296.121 298.195 296.516 297.864C296.921 297.533 297.23 297.128 297.444 296.648L298.308 297.032C298.148 297.384 297.924 297.731 297.636 298.072C297.358 298.403 296.996 298.68 296.548 298.904C296.1 299.117 295.529 299.224 294.836 299.224ZM291.844 294.488H297.476C297.433 293.645 297.161 293 296.66 292.552C296.158 292.093 295.513 291.864 294.724 291.864C293.945 291.864 293.3 292.093 292.788 292.552C292.276 293 291.961 293.645 291.844 294.488ZM303.198 299.224C302.654 299.224 302.158 299.133 301.71 298.952C301.273 298.76 300.926 298.483 300.67 298.12C300.414 297.757 300.286 297.32 300.286 296.808C300.286 296.285 300.414 295.853 300.67 295.512C300.926 295.171 301.273 294.915 301.71 294.744C302.148 294.573 302.633 294.488 303.166 294.488H306.014V293.864C306.014 293.235 305.833 292.744 305.47 292.392C305.108 292.04 304.58 291.864 303.886 291.864C303.204 291.864 302.66 292.035 302.254 292.376C301.86 292.707 301.593 293.155 301.454 293.72L300.526 293.448C300.654 292.989 300.857 292.579 301.134 292.216C301.412 291.843 301.78 291.549 302.238 291.336C302.697 291.112 303.246 291 303.886 291C304.868 291 305.625 291.256 306.158 291.768C306.702 292.28 306.974 292.995 306.974 293.912V297.688C306.974 298.008 307.124 298.168 307.422 298.168H308.174V299H307.15C306.82 299 306.558 298.904 306.366 298.712C306.174 298.509 306.078 298.237 306.078 297.896V297.784H305.918C305.78 298.019 305.598 298.248 305.374 298.472C305.161 298.696 304.878 298.877 304.526 299.016C304.174 299.155 303.732 299.224 303.198 299.224ZM303.262 298.36C304.084 298.36 304.745 298.115 305.246 297.624C305.758 297.123 306.014 296.419 306.014 295.512V295.32H303.182C302.628 295.32 302.164 295.443 301.79 295.688C301.428 295.923 301.246 296.291 301.246 296.792C301.246 297.293 301.433 297.683 301.806 297.96C302.19 298.227 302.676 298.36 303.262 298.36ZM313.027 299.224C312.089 299.224 311.283 299 310.611 298.552C309.95 298.104 309.545 297.363 309.395 296.328L310.339 296.152C310.425 296.717 310.595 297.165 310.851 297.496C311.118 297.816 311.438 298.045 311.811 298.184C312.195 298.323 312.601 298.392 313.027 298.392C313.667 298.392 314.179 298.264 314.563 298.008C314.958 297.741 315.155 297.379 315.155 296.92C315.155 296.451 314.969 296.125 314.595 295.944C314.233 295.763 313.747 295.619 313.139 295.512L312.403 295.384C311.913 295.299 311.47 295.171 311.075 295C310.681 294.819 310.366 294.579 310.131 294.28C309.907 293.981 309.795 293.608 309.795 293.16C309.795 292.488 310.057 291.96 310.579 291.576C311.113 291.192 311.817 291 312.691 291C313.577 291 314.286 291.203 314.819 291.608C315.363 292.003 315.705 292.579 315.843 293.336L314.947 293.528C314.841 292.909 314.585 292.472 314.179 292.216C313.785 291.96 313.289 291.832 312.691 291.832C312.105 291.832 311.635 291.944 311.283 292.168C310.931 292.392 310.755 292.723 310.755 293.16C310.755 293.587 310.915 293.901 311.235 294.104C311.555 294.296 311.993 294.44 312.547 294.536L313.283 294.664C313.817 294.749 314.297 294.877 314.723 295.048C315.15 295.208 315.486 295.437 315.731 295.736C315.987 296.035 316.115 296.429 316.115 296.92C316.115 297.656 315.838 298.227 315.283 298.632C314.729 299.027 313.977 299.224 313.027 299.224ZM321.976 299.224C321.176 299.224 320.478 299.059 319.88 298.728C319.294 298.387 318.835 297.912 318.504 297.304C318.174 296.696 318.008 295.997 318.008 295.208V295.016C318.008 294.216 318.174 293.517 318.504 292.92C318.835 292.312 319.288 291.843 319.864 291.512C320.451 291.171 321.118 291 321.864 291C322.59 291 323.23 291.155 323.784 291.464C324.35 291.763 324.792 292.2 325.112 292.776C325.432 293.341 325.592 294.019 325.592 294.808V295.32H318.968C319 296.291 319.294 297.043 319.848 297.576C320.414 298.099 321.123 298.36 321.976 298.36C322.702 298.36 323.262 298.195 323.656 297.864C324.062 297.533 324.371 297.128 324.584 296.648L325.448 297.032C325.288 297.384 325.064 297.731 324.776 298.072C324.499 298.403 324.136 298.68 323.688 298.904C323.24 299.117 322.67 299.224 321.976 299.224ZM318.984 294.488H324.616C324.574 293.645 324.302 293 323.8 292.552C323.299 292.093 322.654 291.864 321.864 291.864C321.086 291.864 320.44 292.093 319.928 292.552C319.416 293 319.102 293.645 318.984 294.488ZM335.632 299.224C334.875 299.224 334.197 299.064 333.6 298.744C333.013 298.413 332.549 297.944 332.208 297.336C331.867 296.728 331.696 296.013 331.696 295.192V295.032C331.696 294.2 331.867 293.485 332.208 292.888C332.549 292.28 333.013 291.816 333.6 291.496C334.197 291.165 334.875 291 335.632 291C336.379 291 337.008 291.144 337.52 291.432C338.043 291.709 338.448 292.077 338.736 292.536C339.035 292.984 339.221 293.459 339.296 293.96L338.352 294.152C338.299 293.736 338.165 293.357 337.952 293.016C337.739 292.664 337.44 292.387 337.056 292.184C336.672 291.971 336.197 291.864 335.632 291.864C335.067 291.864 334.56 291.997 334.112 292.264C333.664 292.52 333.307 292.888 333.04 293.368C332.784 293.837 332.656 294.397 332.656 295.048V295.176C332.656 295.827 332.784 296.392 333.04 296.872C333.307 297.341 333.664 297.709 334.112 297.976C334.56 298.232 335.067 298.36 335.632 298.36C336.485 298.36 337.136 298.141 337.584 297.704C338.032 297.256 338.309 296.712 338.416 296.072L339.36 296.264C339.264 296.765 339.061 297.245 338.752 297.704C338.453 298.152 338.043 298.52 337.52 298.808C337.008 299.085 336.379 299.224 335.632 299.224ZM344.105 299.224C343.561 299.224 343.065 299.133 342.617 298.952C342.179 298.76 341.833 298.483 341.577 298.12C341.321 297.757 341.193 297.32 341.193 296.808C341.193 296.285 341.321 295.853 341.577 295.512C341.833 295.171 342.179 294.915 342.617 294.744C343.054 294.573 343.539 294.488 344.073 294.488H346.921V293.864C346.921 293.235 346.739 292.744 346.377 292.392C346.014 292.04 345.486 291.864 344.793 291.864C344.11 291.864 343.566 292.035 343.161 292.376C342.766 292.707 342.499 293.155 342.361 293.72L341.433 293.448C341.561 292.989 341.763 292.579 342.041 292.216C342.318 291.843 342.686 291.549 343.145 291.336C343.603 291.112 344.153 291 344.793 291C345.774 291 346.531 291.256 347.065 291.768C347.609 292.28 347.881 292.995 347.881 293.912V297.688C347.881 298.008 348.03 298.168 348.329 298.168H349.081V299H348.057C347.726 299 347.465 298.904 347.273 298.712C347.081 298.509 346.985 298.237 346.985 297.896V297.784H346.825C346.686 298.019 346.505 298.248 346.281 298.472C346.067 298.696 345.785 298.877 345.433 299.016C345.081 299.155 344.638 299.224 344.105 299.224ZM344.169 298.36C344.99 298.36 345.651 298.115 346.153 297.624C346.665 297.123 346.921 296.419 346.921 295.512V295.32H344.089C343.534 295.32 343.07 295.443 342.697 295.688C342.334 295.923 342.153 296.291 342.153 296.792C342.153 297.293 342.339 297.683 342.713 297.96C343.097 298.227 343.582 298.36 344.169 298.36ZM350.908 299V291.224H351.836V292.664H352.028C352.22 292.248 352.535 291.88 352.972 291.56C353.409 291.229 354.044 291.064 354.876 291.064C355.441 291.064 355.959 291.181 356.428 291.416C356.897 291.651 357.271 292.008 357.548 292.488C357.836 292.957 357.98 293.549 357.98 294.264V299H357.02V294.328C357.02 293.475 356.807 292.861 356.38 292.488C355.953 292.115 355.383 291.928 354.668 291.928C353.868 291.928 353.201 292.195 352.668 292.728C352.135 293.251 351.868 294.045 351.868 295.112V299H350.908ZM364.065 299.224C363.372 299.224 362.742 299.064 362.177 298.744C361.612 298.413 361.158 297.949 360.817 297.352C360.486 296.744 360.321 296.029 360.321 295.208V295.016C360.321 294.195 360.486 293.485 360.817 292.888C361.148 292.28 361.596 291.816 362.161 291.496C362.737 291.165 363.372 291 364.065 291C364.641 291 365.126 291.08 365.521 291.24C365.916 291.389 366.236 291.587 366.481 291.832C366.737 292.067 366.934 292.317 367.073 292.584H367.265V287.8H368.225V299H367.297V297.576H367.105C366.881 298.003 366.529 298.387 366.049 298.728C365.58 299.059 364.918 299.224 364.065 299.224ZM364.289 298.36C365.174 298.36 365.889 298.077 366.433 297.512C366.988 296.947 367.265 296.168 367.265 295.176V295.048C367.265 294.056 366.988 293.277 366.433 292.712C365.889 292.147 365.174 291.864 364.289 291.864C363.414 291.864 362.7 292.147 362.145 292.712C361.59 293.277 361.313 294.056 361.313 295.048V295.176C361.313 296.168 361.59 296.947 362.145 297.512C362.7 298.077 363.414 298.36 364.289 298.36ZM371.049 299V291.224H372.009V299H371.049ZM371.529 289.88C371.294 289.88 371.097 289.8 370.937 289.64C370.777 289.48 370.697 289.283 370.697 289.048C370.697 288.803 370.777 288.605 370.937 288.456C371.097 288.296 371.294 288.216 371.529 288.216C371.774 288.216 371.971 288.296 372.121 288.456C372.281 288.605 372.361 288.803 372.361 289.048C372.361 289.283 372.281 289.48 372.121 289.64C371.971 289.8 371.774 289.88 371.529 289.88ZM378.19 299.224C377.497 299.224 376.867 299.064 376.302 298.744C375.737 298.413 375.283 297.949 374.942 297.352C374.611 296.744 374.446 296.029 374.446 295.208V295.016C374.446 294.195 374.611 293.485 374.942 292.888C375.273 292.28 375.721 291.816 376.286 291.496C376.862 291.165 377.497 291 378.19 291C378.766 291 379.251 291.08 379.646 291.24C380.041 291.389 380.361 291.587 380.606 291.832C380.862 292.067 381.059 292.317 381.198 292.584H381.39V287.8H382.35V299H381.422V297.576H381.23C381.006 298.003 380.654 298.387 380.174 298.728C379.705 299.059 379.043 299.224 378.19 299.224ZM378.414 298.36C379.299 298.36 380.014 298.077 380.558 297.512C381.113 296.947 381.39 296.168 381.39 295.176V295.048C381.39 294.056 381.113 293.277 380.558 292.712C380.014 292.147 379.299 291.864 378.414 291.864C377.539 291.864 376.825 292.147 376.27 292.712C375.715 293.277 375.438 294.056 375.438 295.048V295.176C375.438 296.168 375.715 296.947 376.27 297.512C376.825 298.077 377.539 298.36 378.414 298.36ZM387.558 299.224C387.014 299.224 386.518 299.133 386.07 298.952C385.632 298.76 385.286 298.483 385.03 298.12C384.774 297.757 384.646 297.32 384.646 296.808C384.646 296.285 384.774 295.853 385.03 295.512C385.286 295.171 385.632 294.915 386.07 294.744C386.507 294.573 386.992 294.488 387.526 294.488H390.374V293.864C390.374 293.235 390.192 292.744 389.83 292.392C389.467 292.04 388.939 291.864 388.246 291.864C387.563 291.864 387.019 292.035 386.614 292.376C386.219 292.707 385.952 293.155 385.814 293.72L384.886 293.448C385.014 292.989 385.216 292.579 385.494 292.216C385.771 291.843 386.139 291.549 386.598 291.336C387.056 291.112 387.606 291 388.246 291C389.227 291 389.984 291.256 390.518 291.768C391.062 292.28 391.334 292.995 391.334 293.912V297.688C391.334 298.008 391.483 298.168 391.782 298.168H392.534V299H391.51C391.179 299 390.918 298.904 390.726 298.712C390.534 298.509 390.438 298.237 390.438 297.896V297.784H390.278C390.139 298.019 389.958 298.248 389.734 298.472C389.52 298.696 389.238 298.877 388.886 299.016C388.534 299.155 388.091 299.224 387.558 299.224ZM387.622 298.36C388.443 298.36 389.104 298.115 389.606 297.624C390.118 297.123 390.374 296.419 390.374 295.512V295.32H387.542C386.987 295.32 386.523 295.443 386.15 295.688C385.787 295.923 385.606 296.291 385.606 296.792C385.606 297.293 385.792 297.683 386.166 297.96C386.55 298.227 387.035 298.36 387.622 298.36ZM396.693 299C396.277 299 395.962 298.893 395.749 298.68C395.546 298.467 395.445 298.168 395.445 297.784V292.088H392.949V291.224H395.445V288.312H396.405V291.224H399.125V292.088H396.405V297.656C396.405 297.976 396.565 298.136 396.885 298.136H398.709V299H396.693ZM404.57 299.224C403.77 299.224 403.071 299.059 402.474 298.728C401.887 298.387 401.429 297.912 401.098 297.304C400.767 296.696 400.602 295.997 400.602 295.208V295.016C400.602 294.216 400.767 293.517 401.098 292.92C401.429 292.312 401.882 291.843 402.458 291.512C403.045 291.171 403.711 291 404.458 291C405.183 291 405.823 291.155 406.378 291.464C406.943 291.763 407.386 292.2 407.706 292.776C408.026 293.341 408.186 294.019 408.186 294.808V295.32H401.562C401.594 296.291 401.887 297.043 402.442 297.576C403.007 298.099 403.717 298.36 404.57 298.36C405.295 298.36 405.855 298.195 406.25 297.864C406.655 297.533 406.965 297.128 407.178 296.648L408.042 297.032C407.882 297.384 407.658 297.731 407.37 298.072C407.093 298.403 406.73 298.68 406.282 298.904C405.834 299.117 405.263 299.224 404.57 299.224ZM401.578 294.488H407.21C407.167 293.645 406.895 293 406.394 292.552C405.893 292.093 405.247 291.864 404.458 291.864C403.679 291.864 403.034 292.093 402.522 292.552C402.01 293 401.695 293.645 401.578 294.488ZM409.129 302.68V301.848C410.462 301.827 411.433 301.464 412.041 300.76C412.649 300.056 412.953 298.995 412.953 297.576V292.264C412.953 290.835 412.649 289.773 412.041 289.08C411.433 288.376 410.462 288.013 409.129 287.992V287.16C410.099 287.16 410.937 287.331 411.641 287.672C412.355 288.003 412.905 288.536 413.289 289.272C413.683 290.008 413.881 290.979 413.881 292.184V297.656C413.881 298.851 413.683 299.816 413.289 300.552C412.905 301.299 412.355 301.837 411.641 302.168C410.937 302.509 410.099 302.68 409.129 302.68Z" fill="white"/>
</g>
<defs>
<filter id="filter0_f_106_5" x="479.4" y="-596.6" width="2303.2" height="2303.2" filterUnits="userSpaceOnUse" color-interpolation-filters="sRGB">
<feFlood flood-opacity="0" result="BackgroundImageFix"/>
<feBlend mode="normal" in="SourceGraphic" in2="BackgroundImageFix" result="shape"/>
<feGaussianBlur stdDeviation="287.3" result="effect1_foregroundBlur_106_5"/>
</filter>
<filter id="filter1_dg_106_5" x="373.7" y="24.7" width="180.7" height="161.711" filterUnits="userSpaceOnUse" color-interpolation-filters="sRGB">
<feFlood flood-opacity="0" result="BackgroundImageFix"/>
<feColorMatrix in="SourceAlpha" type="matrix" values="0 0 0 0 0 0 0 0 0 0 0 0 0 0 0 0 0 0 127 0" result="hardAlpha"/>
<feOffset dx="-12"/>
<feGaussianBlur stdDeviation="22.65"/>
<feColorMatrix type="matrix" result="shdwTex" values="0 0 0 0 0.0823529 0 0 0 0 0.117647 0 0 0 0 0.807843 0 0 0 0.5 0"/><feTurbulence type="fractalNoise" baseFrequency="1.1111111640930176 1.1111111640930176" numOctaves="3" seed="448" />
<feDisplacementMap in="shdwTex" scale="68.800003051757812" xChannelSelector="R" yChannelSelector="G" result="displacedImage" width="100%" height="100%" />
<feBlend mode="normal" in2="BackgroundImageFix" result="effect1_dropShadow_106_5"/>
<feBlend mode="normal" in="SourceGraphic" in2="BackgroundImageFix" result="shape"/>
<feTurbulence type="fractalNoise" baseFrequency="1.1111111640930176 1.1111111640930176" numOctaves="3" seed="448" result="displacementX" />
<feTurbulence type="fractalNoise" baseFrequency="1.1111111640930176 1.1111111640930176" numOctaves="3" seed="449" result="displacementY" />
<feColorMatrix in="displacementX" type="matrix" values="0 0 0 1 0  0 0 0 0 0  0 0 0 0 0  0 0 0 0 1" result="displacementXRed" />
<feColorMatrix in="displacementY" type="matrix" values="0 0 0 0 0  0 0 0 1 0  0 0 0 0 0  0 0 0 0 1" />
<feComposite in="displacementXRed" operator="arithmetic" k1="0" k2="1" k3="1" k4="0"/>
<feDisplacementMap in="shape" scale="68.800003051757812" xChannelSelector="R" yChannelSelector="G" width="100%" height="100%" />
<feColorMatrix type="matrix" values="0 0 0 0 0  0 0 0 0 0  0 0 0 0 0  0 0 0 1 0" />
<feComponentTransfer result="sourceDisplacedAlpha">
<feFuncA type="gamma" exponent="0.2" />
</feComponentTransfer>
<feColorMatrix in="shape" type="matrix" values="0 0 0 0 0  0 0 0 0 0  0 0 0 0 0  0 0 0 1 0" />
<feComponentTransfer result="inputSourceAlpha">
<feFuncA type="gamma" exponent="0.2" />
</feComponentTransfer>
<feComposite in="sourceDisplacedAlpha" operator="arithmetic" k1="1" k2="0" k3="0" k4="0" result="displacementAlphasMultiplied"/>
<feComposite in="displacementAlphasMultiplied"  operator="arithmetic" k1="0" k2="0" k3="-0.5" k4="0.5" result="centeringAdjustment"/>
<feComposite in="displacementX" in2="displacementAlphasMultiplied" operator="arithmetic" k1="1" k2="0" k3="0" k4="0" />
<feComposite in="centeringAdjustment" operator="arithmetic" k1="0" k2="1" k3="1" k4="0" />
<feColorMatrix  type="matrix" values="0 0 0 1 0  0 0 0 0 0  0 0 0 0 0  0 0 0 0 1" result="displacementXFinal" />
<feComposite in="displacementY" in2="displacementAlphasMultiplied" operator="arithmetic" k1="1" k2="0" k3="0" k4="0" />
<feComposite in="centeringAdjustment" operator="arithmetic" k1="0" k2="1" k3="1" k4="0" />
<feColorMatrix  type="matrix" values="0 0 0 0 0  0 0 0 1 0  0 0 0 0 0  0 0 0 0 1" result="displacementYFinal" />
<feComposite in="displacementXFinal" in2="displacementYFinal" operator="arithmetic" k1="0" k2="1" k3="1" k4="0" />
<feComposite in2="displacementAlphasMultiplied" operator="in" result="displacementMap" />
<feFlood flood-color="rgb(127, 127, 127)" flood-opacity="1"/>
<feComposite in2="displacementAlphasMultiplied" operator="out" />
<feComposite in2="displacementMap" operator="over" result="displacementMapWithBg"/>
<feDisplacementMap in="shape" scale="68.800003051757812" xChannelSelector="R" yChannelSelector="G" width="100%" height="100%" result="displacedImage" />
<feColorMatrix in="shape" type="matrix" values="1 0 0 0 0  0 1 0 0 0  0 0 1 0 0  0 0 0 127 0" result="imageOpaque" />
<feDisplacementMap in="imageOpaque" in2="displacementMapWithBg" scale="68.800003051757812" xChannelSelector="R" yChannelSelector="G" width="100%" height="100%" result="displacedImageOpaque" />
<feColorMatrix in="displacedImage" type="matrix" values="0 0 0 1 0  0 0 0 0 0  0 0 0 0 0  0 0 0 127 0" result="displacedImageRed" />
<feColorMatrix in="shape" type="matrix" values="0 0 0 1 0  0 0 0 0 0  0 0 0 0 0  0 0 0 127 0" />
<feComposite in="displacedImageRed"  operator="atop" result="transparencyRedMap"/>
<feColorMatrix in="transparencyRedMap" type="matrix" values="0 0 0 0 0  0 0 0 0 0  0 0 0 0 0  1 0 0 0 0" result="transparencyAlphaMap" />
<feComposite in="displacedImageOpaque" in2="imageOpaque" operator="over" />
<feComposite in2="transparencyAlphaMap" operator="in" result="effect2_texture_106_5"/>
<feBlend mode="normal" in="effect2_texture_106_5" in2="effect1_dropShadow_106_5" result="effect2_texture_106_5"/>
</filter>
<clipPath id="clip0_106_5">
<rect width="1065" height="390" fill="white"/>
</clipPath>
</defs>
</svg>
